<?xml version="1.0" standalone="no"?>
<!DOCTYPE svg PUBLIC "-//W3C//DTD SVG 20010904//EN"
 "http://www.w3.org/TR/2001/REC-SVG-20010904/DTD/svg10.dtd">
<svg version="1.0" xmlns="http://www.w3.org/2000/svg"
 width="512.000000pt" height="512.000000pt" viewBox="0 0 512.000000 512.000000"
 preserveAspectRatio="xMidYMid meet">
<metadata>
Created by potrace 1.14, written by Peter Selinger 2001-2017
</metadata>
<g transform="translate(0.000000,512.000000) scale(0.100000,-0.100000)"
fill="#000000" stroke="none">
<path d="M2630 5000 c-13 -8 -12 -10 3 -10 9 0 17 5 17 10 0 12 -1 12 -20 0z"/>
<path d="M2590 4954 c0 -8 -4 -13 -9 -9 -6 3 -15 -3 -21 -14 -6 -12 -6 -22 -1
-26 13 -7 24 12 15 28 -4 6 -4 9 1 5 11 -10 47 11 40 23 -10 14 -25 11 -25 -7z"/>
<path d="M2507 4929 c7 -26 19 -32 19 -9 0 11 -6 22 -12 24 -7 3 -10 -3 -7
-15z"/>
<path d="M2630 4941 c0 -5 7 -12 16 -15 14 -5 15 -4 4 9 -14 17 -20 19 -20 6z"/>
<path d="M2586 4913 c-4 -9 -1 -20 5 -24 8 -5 3 -15 -16 -33 -15 -14 -25 -26
-21 -26 4 0 1 -10 -6 -22 -7 -13 -11 -27 -10 -32 2 -5 -3 -4 -11 2 -8 7 -17 8
-21 4 -4 -4 -6 -2 -4 3 2 6 -1 11 -7 12 -5 1 -9 -5 -7 -14 3 -13 -3 -15 -30
-9 -18 3 -28 3 -23 -2 17 -12 41 -47 28 -38 -16 9 -17 -6 -1 -22 7 -7 9 -12 5
-12 -4 0 -3 -8 2 -18 7 -14 6 -18 -7 -18 -9 -1 -26 -4 -37 -8 -13 -5 -11 -2 5
8 16 10 19 15 10 16 -12 0 -13 2 -1 9 11 7 10 11 -5 20 -18 10 -18 12 -2 24
15 12 15 14 -1 24 -11 7 -23 8 -32 2 -11 -7 -11 -9 -1 -9 7 0 10 -5 7 -10 -5
-8 -12 -7 -23 2 -12 10 -14 10 -8 1 4 -8 2 -13 -4 -13 -7 0 -10 -6 -7 -14 3
-8 -1 -17 -10 -20 -10 -4 -13 -2 -10 7 3 8 -1 14 -8 14 -8 0 -11 -7 -7 -15 4
-11 1 -13 -9 -7 -8 4 -11 4 -6 0 4 -5 -1 -17 -10 -28 -13 -15 -14 -18 -3 -12
13 8 13 6 1 -8 -18 -23 -34 -11 -20 16 9 16 4 14 -16 -8 -18 -18 -30 -25 -33
-17 -3 9 -9 9 -23 1 -11 -5 -24 -7 -29 -4 -6 3 -10 1 -10 -4 0 -6 -3 -10 -7
-9 -5 0 -16 -2 -25 -5 -10 -4 -25 -9 -34 -12 -8 -3 -13 -9 -10 -13 3 -5 -8 -6
-25 -4 -19 3 -29 0 -29 -9 0 -8 -6 -5 -15 7 -13 18 -14 18 -9 -8 2 -16 0 -28
-6 -28 -6 0 -9 4 -6 8 2 4 0 14 -5 22 -7 11 -8 8 -5 -10 3 -14 5 -29 5 -33 1
-5 5 -6 10 -2 5 3 13 0 17 -6 4 -7 3 -9 -3 -6 -6 4 -17 -1 -24 -10 -12 -15
-12 -16 6 -10 20 7 20 7 1 -8 -13 -10 -23 -11 -31 -5 -7 5 -15 7 -19 3 -4 -4
-4 1 0 11 5 12 9 14 14 6 4 -7 9 -8 12 -4 4 8 4 16 0 52 -1 6 -7 12 -13 12 -8
0 -8 -4 0 -14 9 -11 9 -16 0 -22 -7 -4 -10 -3 -7 2 3 5 -3 18 -14 29 -16 17
-18 17 -12 2 5 -14 2 -16 -12 -11 -15 5 -16 4 -4 -5 8 -5 11 -13 7 -17 -3 -4
-13 -1 -21 5 -10 9 -16 9 -21 1 -5 -8 -11 -8 -21 1 -10 8 -14 8 -14 0 0 -6 5
-11 10 -11 14 0 13 -27 -2 -36 -7 -5 -9 -2 -5 8 3 10 -1 18 -12 21 -10 2 -18
-1 -18 -9 0 -7 5 -10 10 -7 6 3 7 1 3 -6 -6 -9 -11 -9 -21 -1 -18 15 -45 2
-37 -18 5 -14 4 -15 -10 -2 -9 8 -14 17 -13 20 7 11 -10 28 -30 32 -11 1 -23
8 -27 13 -5 6 -8 6 -8 -2 0 -6 8 -18 18 -25 28 -20 45 -55 30 -64 -7 -4 -8 -3
-4 4 4 7 1 12 -9 12 -9 0 -14 4 -11 9 4 5 -2 8 -11 7 -10 -2 -18 -8 -18 -14 0
-16 -15 -27 -16 -11 -1 8 -1 17 -1 20 1 3 -5 6 -13 6 -11 0 -11 -4 1 -22 8
-12 11 -26 7 -30 -5 -5 0 -3 10 4 9 7 17 9 17 4 0 -5 -11 -16 -25 -23 -25 -14
-25 -30 1 -30 9 0 12 5 8 12 -4 7 -3 8 5 4 6 -4 9 -11 6 -16 -3 -4 -2 -10 2
-13 5 -2 3 -3 -3 -1 -6 1 -11 -8 -11 -22 0 -13 3 -21 8 -18 5 3 6 -2 2 -12 -5
-15 -7 -15 -15 0 -5 9 -13 14 -19 11 -5 -4 -9 -2 -9 4 0 6 -8 7 -17 4 -16 -6
-16 -4 -5 9 11 14 11 16 0 14 -7 -1 -19 -6 -27 -10 -10 -7 -12 -6 -6 4 5 8 4
11 -1 7 -21 -12 -33 8 -17 28 9 11 13 13 11 5 -4 -11 3 -15 27 -15 22 0 31 4
28 12 -3 7 2 16 11 19 9 3 13 10 10 15 -7 12 -53 -23 -46 -36 3 -5 1 -6 -3 -2
-17 15 -14 36 3 30 13 -5 14 -3 5 7 -6 7 -9 20 -7 29 3 9 -2 4 -10 -10 -17
-29 -46 -46 -46 -26 0 8 -4 6 -10 -3 -6 -10 -10 -11 -10 -2 0 6 -7 12 -15 12
-8 0 -15 5 -15 12 0 17 -10 3 -15 -21 -2 -11 -7 -27 -10 -34 -4 -6 0 -4 8 6
15 18 15 18 21 -1 4 -11 19 -22 36 -26 33 -6 39 -20 13 -30 -10 -3 -24 -9 -30
-12 -7 -3 -13 -1 -13 6 0 6 4 8 10 5 6 -4 7 1 3 11 -4 11 -8 13 -11 6 -2 -7
-7 -10 -12 -7 -4 3 -6 -5 -3 -17 3 -17 2 -19 -5 -9 -6 9 -11 10 -13 2 -2 -6
-10 -2 -17 10 -8 12 -9 18 -4 15 6 -3 13 1 16 10 4 10 2 13 -7 8 -6 -4 -9 -4
-5 1 4 4 2 15 -4 23 -15 18 -18 72 -3 72 21 0 45 40 48 82 1 11 5 14 11 8 6
-6 14 -3 23 8 8 9 12 11 8 5 -4 -9 2 -13 20 -13 15 0 24 -4 20 -10 -4 -7 2 -7
18 -1 14 6 28 7 33 3 4 -4 4 -1 0 6 -4 7 -12 10 -17 7 -5 -4 -9 -1 -9 6 0 6
-8 18 -17 26 -12 10 -13 12 -3 8 8 -4 6 1 -4 9 -18 15 -15 21 8 17 5 -1 3 5
-4 14 -11 13 -10 15 4 9 9 -3 16 -13 16 -21 0 -8 5 -11 10 -8 14 9 13 -8 -2
-23 -12 -12 -8 -15 40 -25 19 -5 22 -2 17 11 -5 14 -4 15 6 5 20 -20 28 -15
23 13 -3 15 -1 23 5 20 5 -4 12 -2 16 4 5 9 -15 15 -37 11 -5 0 -8 4 -8 11 0
6 -3 8 -6 5 -4 -4 -19 2 -33 11 -18 12 -42 17 -76 16 -64 -3 -63 -3 -42 -15 9
-5 17 -15 17 -22 0 -8 -3 -9 -8 -1 -4 6 -17 13 -29 16 -26 7 -38 -15 -17 -32
29 -25 17 -44 -26 -41 -10 0 -11 -1 -2 -5 6 -3 9 -11 5 -17 -4 -7 1 -6 10 2
15 12 17 12 11 -3 -3 -9 -10 -16 -15 -16 -5 0 -8 -3 -8 -7 1 -5 1 -17 0 -28
-1 -17 -3 -18 -11 -5 -9 13 -10 13 -10 0 0 -10 -3 -11 -8 -4 -5 8 -13 4 -25
-11 -10 -15 -13 -26 -7 -30 7 -4 6 -14 -2 -28 -16 -29 -19 -49 -6 -41 5 3 12
-3 15 -14 3 -13 11 -18 19 -15 8 3 11 10 7 16 -4 6 -1 7 7 2 10 -6 6 -13 -14
-27 -14 -11 -24 -24 -21 -28 3 -5 1 -11 -4 -14 -5 -3 -7 12 -5 35 4 38 3 40
-13 28 -14 -12 -16 -12 -8 0 6 11 4 13 -9 8 -24 -9 -42 3 -25 15 11 7 11 11 1
15 -6 2 -10 8 -7 13 6 9 -25 44 -44 48 -20 4 -60 -45 -56 -69 3 -15 1 -18 -8
-11 -9 8 -12 4 -12 -13 0 -13 3 -21 8 -18 4 2 7 -8 7 -24 0 -19 3 -24 9 -14 7
10 12 8 24 -9 8 -12 20 -19 25 -16 12 7 42 -3 42 -14 0 -5 -9 -7 -20 -5 -15 3
-20 -1 -18 -13 2 -12 -4 -17 -19 -16 -18 0 -20 -2 -12 -13 15 -18 4 -17 -14 1
-13 13 -15 11 -15 -12 0 -15 5 -30 10 -33 6 -4 0 -7 -13 -7 -13 -1 -33 -3 -43
-5 -12 -2 -28 6 -41 21 -19 23 -22 23 -37 8 -9 -9 -22 -16 -28 -16 -6 0 -9 -4
-6 -9 3 -5 -2 -12 -12 -16 -15 -6 -15 -8 6 -25 22 -18 31 -37 11 -24 -6 3 -10
-1 -9 -12 4 -36 0 -46 -16 -40 -8 3 -12 2 -9 -4 3 -6 -1 -10 -10 -10 -10 0
-13 5 -9 12 4 6 3 8 -4 5 -5 -4 -9 -15 -8 -25 2 -9 -4 -23 -13 -30 -14 -12
-14 -13 4 -8 18 5 18 5 4 -6 -9 -7 -14 -20 -11 -28 2 -9 -2 -7 -12 5 -8 11
-16 16 -16 11 0 -5 -7 -3 -15 4 -8 7 -15 9 -15 5 0 -4 -8 -1 -17 6 -15 11 -16
11 -5 -1 14 -16 17 -44 3 -36 -5 3 -11 -4 -15 -17 -8 -30 -7 -32 3 -32 5 0 13
-4 18 -9 5 -5 3 -6 -4 -2 -9 5 -12 0 -11 -18 1 -13 6 -22 10 -20 5 3 5 11 1
17 -4 8 -1 7 9 -1 12 -10 18 -10 23 -1 6 8 10 7 16 -2 13 -20 11 -31 -3 -23
-8 5 -7 0 2 -11 13 -17 13 -18 0 -11 -8 4 -6 0 4 -8 11 -9 15 -16 9 -16 -6 0
-9 -13 -8 -30 1 -16 -1 -27 -6 -25 -4 3 -17 -5 -29 -17 -19 -21 -21 -21 -14
-3 7 18 6 19 -9 6 -15 -12 -19 -12 -32 5 -8 10 -15 21 -15 24 0 3 -19 6 -43 7
-23 1 -68 4 -99 6 -32 2 -58 0 -58 -5 0 -5 -4 -7 -9 -4 -8 5 -71 -38 -78 -54
-2 -3 -21 -5 -42 -4 -22 0 -39 -2 -38 -5 2 -7 -17 -32 -51 -66 -13 -13 -21
-29 -17 -34 3 -6 1 -11 -6 -11 -7 0 -5 -9 6 -26 12 -18 13 -24 4 -19 -8 3 -5
0 6 -9 11 -8 25 -20 32 -26 7 -5 16 -10 21 -10 5 0 18 -10 30 -23 17 -18 19
-24 8 -24 -8 0 -13 4 -10 8 2 4 0 10 -5 13 -12 8 -8 -13 7 -41 12 -22 2 -27
-23 -11 -6 4 -17 3 -25 -2 -9 -6 -18 -3 -27 8 -12 16 -13 16 -7 0 3 -10 1 -18
-5 -18 -17 0 -13 -21 7 -36 15 -12 15 -12 -7 -7 l-24 6 18 -31 c18 -29 19 -30
44 -14 l26 16 -25 -25 -25 -24 -13 23 c-11 19 -16 21 -28 11 -8 -6 -12 -14
-10 -17 3 -2 -2 -11 -10 -19 -15 -16 -10 -34 9 -32 9 0 9 2 0 6 -10 3 -9 8 2
20 8 8 13 19 10 24 -4 5 -1 9 5 9 6 0 8 -14 6 -35 -3 -21 -1 -33 5 -29 5 3 7
9 5 13 -3 4 1 8 8 8 8 0 12 -6 9 -14 -3 -7 -9 -13 -15 -13 -5 0 -7 -4 -3 -10
3 -5 -7 -3 -22 5 -15 8 -34 15 -41 15 -7 0 -10 5 -7 10 3 6 1 10 -4 10 -17 0
-13 -21 7 -36 16 -13 16 -14 -2 -7 -16 5 -18 3 -13 -11 4 -9 3 -15 -2 -11 -5
3 -16 -1 -24 -9 -8 -8 -17 -12 -21 -9 -3 4 -6 2 -6 -4 0 -6 -12 -9 -26 -7 -19
2 -24 -1 -20 -12 3 -8 2 -13 -2 -10 -10 6 -43 -30 -35 -38 4 -3 0 -6 -9 -6 -8
0 -23 -10 -34 -22 -15 -19 -16 -20 -1 -9 9 7 17 9 17 4 0 -16 -46 -33 -58 -21
-6 6 -12 6 -17 -1 -3 -6 -1 -10 6 -9 6 2 14 -3 17 -11 2 -8 1 -11 -4 -8 -5 3
-18 -1 -29 -9 -10 -8 -14 -14 -8 -14 7 0 15 5 19 11 5 8 10 6 16 -5 12 -22 31
-10 23 15 -8 23 8 25 30 2 16 -15 16 -18 1 -28 -9 -7 -12 -16 -8 -21 4 -4 -1
-2 -10 5 -20 15 -24 1 -5 -18 10 -10 9 -11 -3 -6 -17 6 -53 -29 -58 -58 -2
-11 2 -15 13 -11 8 3 12 11 8 18 -4 6 1 5 10 -3 22 -17 14 -29 -18 -26 -14 2
-25 -1 -25 -6 0 -6 -8 -9 -17 -7 -25 4 -26 -40 -1 -47 10 -4 16 -11 12 -16 -3
-5 -10 -7 -15 -4 -5 4 -9 1 -9 -4 0 -14 17 -14 25 -1 3 6 21 8 38 5 29 -5 30
-4 14 9 -11 8 -24 13 -31 10 -7 -3 -12 5 -12 20 0 25 24 40 44 27 6 -4 12 -23
14 -44 2 -29 5 -36 19 -32 12 4 17 -1 17 -20 0 -14 -5 -25 -10 -25 -5 0 -4 -9
2 -20 6 -11 8 -20 4 -20 -3 0 -1 -7 6 -15 11 -13 10 -14 -2 -10 -9 4 -15 0
-15 -9 0 -8 8 -13 19 -11 17 4 17 2 4 -17 -8 -11 -13 -25 -12 -32 2 -6 1 -8
-1 -4 -2 4 -11 4 -19 1 -7 -3 -11 -10 -7 -16 3 -6 1 -7 -5 -3 -7 4 -12 3 -12
-2 0 -16 13 -22 26 -11 8 7 14 6 20 -2 4 -7 3 -9 -3 -6 -12 8 -46 -27 -36 -36
3 -4 1 -7 -6 -7 -6 0 -10 10 -7 23 3 15 -1 24 -10 24 -7 0 -11 -4 -8 -8 2 -4
-4 -13 -13 -19 -17 -11 -17 -11 0 -6 21 7 22 -1 2 -20 -8 -9 -15 -20 -15 -26
0 -6 8 -1 18 11 13 16 20 18 32 10 13 -9 13 -10 -2 -6 -9 3 -19 -1 -22 -9 -3
-8 -2 -14 2 -14 4 0 18 -9 32 -20 20 -16 21 -19 5 -14 -11 4 -17 4 -13 -1 4
-4 3 -14 -3 -21 -7 -8 -7 -14 1 -19 5 -3 10 -1 10 4 0 6 5 11 11 11 5 0 8 -4
5 -9 -4 -5 -3 -11 1 -14 5 -2 2 -2 -5 0 -9 2 -11 -4 -7 -20 5 -18 3 -17 -10 6
-9 15 -20 27 -26 27 -6 0 -3 -7 6 -16 9 -9 14 -23 11 -31 -4 -9 -1 -11 5 -7 7
4 10 1 7 -7 -3 -8 -12 -13 -22 -11 -9 2 -16 -1 -16 -6 0 -5 8 -9 17 -9 36 0
44 -3 37 -15 -4 -7 -3 -8 4 -4 9 5 9 12 1 29 -9 16 -9 22 0 25 6 2 9 8 5 13
-3 5 -1 9 4 9 11 0 20 -19 18 -35 0 -5 -5 -9 -10 -7 -5 2 -6 -5 -2 -14 3 -9 1
-24 -6 -33 -12 -15 -11 -15 6 -1 18 14 19 13 13 -3 -4 -10 -3 -16 2 -12 5 3
12 -1 14 -7 4 -10 6 -10 6 0 1 7 5 11 10 7 6 -3 8 4 6 15 -2 11 0 18 6 15 5
-4 6 -11 3 -17 -5 -8 -1 -9 11 -4 15 5 16 4 5 -9 -8 -9 -8 -15 -2 -15 6 0 14
5 17 10 3 6 11 10 16 10 6 0 3 -7 -6 -16 -15 -15 -15 -18 1 -35 9 -10 13 -23
8 -31 -4 -7 -4 -10 1 -6 22 20 43 -107 22 -128 -10 -11 -9 -24 3 -24 5 0 9 3
9 7 -1 5 0 11 1 16 1 4 3 13 4 20 0 6 11 13 23 13 12 1 20 -2 17 -7 -2 -4 -12
-5 -20 -2 -14 5 -15 3 -3 -18 8 -13 14 -31 14 -39 1 -8 7 -14 14 -12 7 1 10
-2 7 -7 -3 -5 1 -14 9 -21 8 -7 15 -17 15 -23 0 -6 -13 4 -29 23 -16 19 -27
40 -24 46 2 7 -1 15 -8 20 -9 5 -10 2 -6 -9 6 -15 -2 -21 -24 -19 -14 2 -4
-26 13 -37 10 -6 18 -7 18 -2 0 5 -6 11 -12 14 -7 2 -10 8 -6 12 4 4 14 2 22
-4 18 -15 17 -54 -2 -46 -9 3 -10 0 -3 -13 7 -12 5 -22 -7 -36 -13 -15 -14
-18 -2 -12 8 4 7 1 -3 -7 -10 -9 -18 -17 -17 -19 3 -8 -13 -37 -19 -34 -3 2
-13 -1 -21 -7 -18 -14 -23 -50 -6 -44 6 3 10 10 8 16 -1 7 2 10 8 6 5 -3 21 6
36 20 25 25 25 25 19 3 -6 -19 -5 -21 6 -10 16 14 33 16 24 2 -3 -6 -4 -10 -1
-10 3 0 10 10 17 21 6 12 7 19 2 16 -5 -3 -9 4 -8 16 3 30 -7 45 -15 22 -6
-18 -7 -17 -12 3 -4 14 -2 20 4 15 7 -4 8 -1 3 7 -5 8 -4 11 3 6 7 -4 10 1 7
14 -4 21 9 28 20 10 3 -6 1 -10 -5 -10 -6 0 -9 -4 -5 -10 3 -5 13 -6 21 -3 13
5 14 2 7 -13 -10 -18 -7 -73 4 -84 3 -3 3 12 0 32 -5 36 14 70 30 54 3 -3 1
-6 -5 -6 -7 0 -12 -14 -12 -31 0 -17 4 -28 10 -24 5 3 10 1 10 -4 0 -6 -4 -11
-8 -11 -5 0 -8 -15 -8 -34 1 -19 4 -32 9 -29 4 2 4 10 0 16 -4 8 -1 7 9 -1 14
-11 17 -10 23 8 4 12 9 19 12 17 8 -9 -18 -48 -28 -42 -5 4 -9 1 -9 -4 0 -6 5
-11 11 -11 5 0 7 -5 4 -10 -3 -6 1 -13 10 -17 10 -3 21 0 26 8 5 8 9 9 9 4 0
-6 -5 -16 -12 -23 -9 -9 -9 -12 0 -12 6 0 9 -7 6 -15 -4 -8 -1 -15 6 -15 6 0
8 5 5 10 -3 6 -1 10 4 10 17 0 13 -18 -6 -29 -17 -10 -17 -10 -1 -11 9 0 20
-5 24 -12 5 -7 3 -8 -7 -3 -12 8 -12 6 0 -8 10 -12 18 -14 31 -7 11 6 21 6 24
1 4 -5 0 -11 -6 -14 -7 -2 -9 -8 -5 -13 4 -5 12 -2 16 5 6 9 11 10 15 2 4 -6
2 -11 -3 -11 -14 0 -51 -37 -51 -51 0 -5 4 -8 9 -5 11 7 33 -19 24 -28 -4 -4
1 -4 12 0 25 9 18 1 -14 -16 -19 -10 -22 -10 -16 2 7 11 5 11 -6 0 -12 -11
-12 -14 1 -22 11 -7 11 -10 2 -10 -7 0 -10 -5 -6 -12 4 -7 3 -8 -5 -4 -8 5
-10 0 -7 -18 3 -18 1 -24 -6 -20 -7 5 -9 2 -5 -9 3 -9 -1 -18 -11 -22 -16 -6
-16 -7 0 -19 19 -14 25 -32 7 -20 -8 4 -8 1 0 -14 6 -12 10 -25 9 -29 -1 -4 3
-18 10 -29 6 -12 9 -24 6 -26 -2 -3 4 -11 13 -19 16 -12 17 -12 8 1 -5 9 -2 7
9 -5 10 -11 20 -19 22 -17 11 6 24 1 19 -8 -4 -6 -12 -7 -18 -3 -9 5 -9 3 -1
-8 6 -8 10 -21 9 -29 -2 -11 6 -17 23 -18 14 -1 30 -8 35 -15 6 -8 7 -7 4 5
-4 10 1 19 11 23 9 3 13 3 10 -1 -4 -3 -1 -13 7 -20 15 -15 29 -19 21 -6 -2 4
0 14 5 22 6 11 8 5 4 -17 -4 -25 -2 -33 10 -33 8 0 14 3 14 8 -3 20 2 23 18
11 15 -13 15 -12 5 8 -7 12 -15 23 -19 25 -5 3 -2 3 5 2 22 -6 40 7 46 31 5
18 11 22 23 18 9 -4 14 -2 11 3 -3 5 4 17 15 27 19 19 19 18 12 -4 -7 -22 -7
-23 10 -9 17 13 18 13 10 0 -6 -8 -10 -24 -10 -35 -1 -11 -6 -19 -13 -18 -6 2
-9 -4 -6 -12 4 -8 10 -12 15 -9 5 3 9 -2 9 -10 0 -9 7 -16 16 -16 8 0 12 -4 9
-10 -5 -9 6 -14 25 -12 3 0 6 -9 7 -21 0 -12 -1 -16 -4 -9 -3 6 -10 9 -15 6
-7 -5 -8 -2 -3 7 6 11 5 11 -5 2 -10 -9 -10 -15 4 -28 20 -20 21 -29 2 -22
-10 4 -13 1 -9 -8 3 -8 10 -12 17 -8 6 3 2 -4 -9 -18 -11 -13 -16 -21 -10 -16
5 4 15 -15 22 -44 11 -43 11 -54 1 -61 -7 -4 -8 -8 -2 -8 5 0 16 6 23 12 10 9
12 9 7 1 -3 -6 -2 -14 4 -18 6 -4 7 -12 3 -18 -4 -7 2 -5 12 3 17 14 18 13 12
-4 -7 -17 -6 -17 10 -5 12 10 15 10 9 1 -4 -7 -2 -20 6 -29 9 -12 9 -15 0 -9
-6 4 -12 2 -12 -3 0 -6 -5 -11 -11 -11 -8 0 -8 5 1 15 9 10 9 15 1 15 -6 0
-11 -6 -11 -12 0 -9 -4 -8 -10 2 -6 9 -10 10 -10 3 0 -6 5 -15 11 -19 8 -4 7
-9 -2 -16 -10 -7 -8 -8 8 -3 12 3 24 1 28 -5 4 -7 13 -7 27 1 16 8 22 8 29 -2
4 -7 5 -18 1 -24 -4 -6 -8 -3 -10 7 -3 17 -32 14 -32 -4 0 -5 4 -6 10 -3 5 3
10 1 10 -4 0 -6 -3 -11 -7 -11 -12 0 -35 16 -34 24 1 3 -1 6 -4 6 -3 0 -8 0
-12 0 -3 0 1 -8 10 -18 10 -10 14 -21 11 -25 -4 -4 3 -5 15 -2 16 3 21 -1 21
-19 0 -13 7 -29 15 -36 8 -7 13 -16 10 -20 -3 -5 1 -11 7 -13 8 -3 6 -6 -4 -6
-10 -1 -18 -4 -19 -8 0 -5 -2 -18 -3 -30 -2 -13 1 -23 6 -23 4 0 8 -8 8 -19 0
-23 19 -39 58 -51 22 -6 32 -5 36 3 3 8 5 8 5 -1 1 -10 7 -9 30 2 16 9 32 12
36 8 3 -4 6 -2 5 3 -5 21 1 35 12 32 7 -1 13 5 14 13 3 36 5 40 14 40 12 0 9
-22 -5 -32 -6 -5 -5 -8 4 -8 11 0 11 -3 0 -17 -11 -15 -11 -16 1 -6 20 18 35
16 20 -2 -11 -13 -10 -14 4 -9 12 4 15 13 10 28 -6 18 -5 19 10 7 9 -7 15 -21
14 -30 -2 -9 3 -15 10 -14 6 2 18 4 25 5 6 2 11 -3 9 -11 -2 -10 1 -12 10 -5
7 6 20 10 28 9 8 0 19 4 23 10 5 6 7 4 6 -5 -3 -22 11 -50 25 -50 6 0 18 -9
26 -20 8 -11 22 -20 32 -20 10 0 18 -5 18 -11 0 -7 12 -10 29 -7 17 2 28 1 25
-3 -6 -10 27 -20 66 -21 17 -1 33 -5 36 -10 7 -12 24 -10 24 3 0 5 -5 7 -12 3
-7 -5 -8 -3 -3 6 5 8 4 11 -3 6 -6 -3 -14 -1 -18 5 -5 8 -8 8 -14 -1 -5 -8 -9
-6 -14 6 -4 10 -4 15 0 11 4 -4 15 0 25 9 16 15 17 14 12 -7 -4 -14 -2 -20 4
-16 6 4 16 0 23 -8 16 -20 30 -19 47 3 10 11 12 12 8 2 -4 -8 1 -6 10 5 9 11
21 19 26 17 6 -1 8 2 4 8 -4 6 -1 17 5 25 10 12 15 12 34 0 13 -8 26 -12 31
-8 4 5 5 0 2 -10 -6 -15 -4 -16 13 -7 11 6 20 13 20 16 0 3 -5 2 -12 -2 -7 -5
-8 -3 -3 6 5 9 4 11 -3 6 -7 -4 -12 -1 -12 6 0 11 -2 11 -9 0 -6 -10 -11 -9
-22 4 -10 13 -10 16 -1 10 7 -4 20 -2 29 6 12 9 15 9 9 0 -7 -12 3 -16 34 -13
12 2 12 0 2 -7 -15 -10 -15 -18 0 -45 6 -11 16 -16 25 -13 11 4 13 2 9 -9 -4
-12 -2 -13 13 -6 12 7 22 6 30 -2 10 -9 12 -9 9 3 -2 8 3 14 10 12 8 -1 11 2
7 8 -3 6 -11 8 -16 5 -5 -4 -9 -1 -9 4 0 6 -6 11 -13 11 -7 0 -18 10 -26 23
-13 21 -13 21 4 7 17 -14 17 -13 11 10 -6 21 -5 22 4 7 6 -9 8 -22 5 -27 -4
-6 1 -7 11 -3 12 4 15 3 10 -5 -4 -7 -1 -12 9 -12 8 0 20 10 25 23 6 16 9 17
9 5 1 -9 -3 -19 -9 -23 -14 -9 0 -34 16 -28 9 3 14 -2 14 -13 0 -16 2 -16 9
-4 6 8 7 18 4 24 -3 5 -1 6 6 2 6 -4 9 -12 5 -17 -3 -5 -2 -9 3 -8 21 4 34 -2
27 -12 -4 -7 2 -7 17 1 23 12 23 11 7 -6 -16 -16 -16 -18 0 -30 11 -9 13 -13
4 -14 -9 0 -7 -6 5 -18 26 -27 50 -33 57 -16 3 9 11 12 16 9 8 -5 7 -11 -1
-21 -8 -10 -8 -14 -1 -14 6 0 9 -7 6 -15 -4 -9 1 -18 11 -21 9 -4 14 -13 11
-21 -4 -9 -2 -11 6 -7 8 5 9 2 5 -10 -4 -10 -3 -15 3 -11 6 3 13 -1 16 -9 4
-12 13 -7 41 20 19 20 38 33 41 30 8 -9 -39 -56 -49 -50 -5 3 -9 1 -9 -4 0
-24 58 -30 72 -9 6 9 8 8 8 -1 0 -10 5 -10 20 -2 14 8 20 8 20 0 0 -6 4 -8 10
-5 19 11 50 14 50 4 0 -6 5 -7 10 -4 6 4 8 10 5 15 -3 5 -1 11 4 14 5 4 13 1
17 -5 4 -8 3 -9 -4 -5 -17 10 -15 1 2 -13 11 -9 16 -9 22 0 4 8 3 9 -4 5 -8
-4 -10 -2 -6 8 4 11 12 7 34 -17 16 -18 30 -27 30 -20 0 7 -10 22 -22 34 -13
12 -17 19 -10 15 7 -4 21 -2 30 6 15 12 16 11 3 -4 -9 -13 -10 -18 -2 -18 7 0
10 -4 7 -8 -2 -4 0 -14 6 -22 8 -12 9 -12 4 3 -3 10 0 17 7 17 8 0 8 3 -2 9
-9 6 -10 11 -2 15 6 4 11 2 11 -3 0 -6 3 -10 8 -9 16 3 62 -22 61 -34 0 -10
-2 -10 -6 0 -2 6 -9 12 -14 12 -6 0 -7 -4 -4 -10 3 -5 1 -10 -5 -10 -6 0 -8
-5 -4 -12 6 -10 4 -10 -8 0 -11 9 -18 10 -23 2 -3 -5 -1 -10 5 -10 7 0 10 -7
7 -14 -4 -11 -1 -13 10 -9 12 5 15 2 10 -10 -3 -9 -2 -19 2 -22 12 -7 20 19
15 47 -4 21 -4 21 5 3 6 -12 10 -15 10 -6 1 8 3 12 6 9 3 -3 1 -17 -6 -31 -9
-21 -8 -29 5 -49 17 -23 17 -23 11 17 l-6 40 14 -30 c8 -16 12 -34 9 -40 -3
-6 -1 -6 4 -2 5 5 9 18 9 30 1 13 6 21 14 19 9 -2 11 3 7 15 -4 9 -4 14 0 10
4 -4 13 1 21 11 13 15 13 15 3 -5 -6 -13 -7 -23 -3 -23 4 0 0 -5 -9 -11 -22
-12 -23 -26 -4 -26 8 0 14 5 13 10 -1 5 4 12 12 15 9 3 11 0 6 -8 -5 -9 -4
-11 4 -6 6 4 9 12 6 17 -4 5 1 9 9 9 9 0 16 5 16 10 0 7 -7 7 -21 0 -18 -10
-19 -9 -11 7 5 10 8 26 7 36 -2 9 1 14 7 11 5 -3 7 -9 4 -12 -3 -3 -1 -11 6
-19 9 -11 14 -11 30 4 21 19 58 28 58 14 0 -6 -5 -13 -12 -17 -7 -5 -8 -2 -3
7 6 11 5 12 -5 2 -18 -17 -5 -29 14 -14 10 8 16 9 21 1 3 -5 12 -10 18 -10 7
0 6 4 -3 10 -13 8 -12 10 3 10 15 0 22 -11 18 -33 -1 -5 3 -6 9 -2 5 3 13 -1
16 -9 5 -13 9 -12 26 7 18 20 19 20 14 2 -6 -19 -5 -19 7 -3 8 10 18 14 23 10
4 -4 2 1 -6 11 -7 10 -9 17 -4 16 26 -5 45 2 38 14 -5 8 -3 8 9 -2 9 -7 15
-17 12 -21 -3 -5 3 -7 12 -5 10 1 24 -3 32 -9 11 -8 13 -8 7 2 -10 17 21 27
38 13 9 -8 16 -8 20 -2 4 5 2 12 -3 15 -11 7 -3 46 10 46 4 0 6 -9 4 -21 -4
-17 -2 -19 11 -8 13 10 13 14 -2 30 -9 10 -22 15 -29 13 -7 -3 -15 2 -19 12
-5 14 -4 15 9 4 8 -7 15 -9 15 -5 0 4 7 2 15 -5 12 -10 18 -10 31 1 10 8 18 9
22 3 11 -15 65 -17 56 -1 -5 9 -4 9 6 0 14 -13 40 -7 40 9 0 6 -8 4 -17 -3
-16 -12 -17 -12 -6 2 7 9 10 18 7 21 -3 3 9 4 25 3 17 -1 28 1 25 6 -3 5 2 12
10 15 9 3 13 11 9 18 -5 7 -2 7 8 -1 15 -12 43 -12 55 0 4 3 -3 5 -14 2 -12
-2 -24 0 -27 5 -3 5 4 7 15 5 11 -2 20 2 20 8 0 8 3 7 9 -2 5 -8 6 -21 3 -30
-5 -14 -4 -14 13 -1 15 12 17 12 10 1 -6 -11 -4 -13 8 -8 9 3 21 -1 29 -11 11
-13 11 -15 -2 -7 -12 6 -13 5 -3 -5 15 -16 46 -23 37 -9 -3 5 -10 7 -15 4 -5
-3 -6 1 -3 9 5 14 8 14 22 -1 16 -15 17 -15 20 3 2 10 9 24 14 29 7 7 8 2 3
-15 -5 -19 -4 -21 4 -10 5 8 13 11 17 7 11 -10 -38 -55 -54 -49 -6 2 -12 -1
-12 -8 0 -6 -4 -9 -9 -6 -14 9 -38 -3 -38 -19 0 -19 7 -19 21 1 10 13 12 13
12 -5 0 -11 -5 -17 -10 -14 -5 4 -6 1 -1 -6 6 -10 3 -11 -13 -2 -12 6 -24 16
-28 23 -5 7 -3 8 7 3 12 -8 12 -6 0 8 -12 15 -11 17 2 17 9 0 18 4 21 9 4 5
-3 7 -14 4 -12 -3 -20 0 -20 6 0 7 5 9 10 6 6 -3 10 -2 10 3 0 6 -7 13 -16 16
-8 3 -13 2 -10 -3 8 -13 -21 -34 -35 -25 -7 4 -18 -1 -26 -12 -13 -18 -14 -17
-10 7 6 31 -7 59 -16 35 -4 -9 -14 -13 -27 -11 -11 2 -18 0 -15 -6 4 -5 14 -9
24 -9 14 0 18 -7 17 -29 0 -16 -4 -27 -8 -25 -3 2 -10 -1 -14 -7 -4 -7 -3 -10
2 -7 9 6 29 -10 31 -25 1 -4 4 -13 7 -20 5 -9 7 -9 12 1 3 6 10 10 15 7 5 -4
6 0 4 7 -4 9 2 14 15 14 15 0 19 -5 15 -21 -5 -18 -5 -18 5 -3 8 13 8 23 0 38
-7 13 -7 20 0 20 5 0 10 -7 10 -15 0 -8 5 -15 10 -15 7 0 7 -7 0 -22 l-11 -23
18 23 c15 18 21 20 32 10 11 -10 12 -10 7 -1 -7 13 4 17 32 14 6 -1 12 3 12 9
0 6 5 8 10 5 6 -4 9 -1 8 7 -2 7 3 12 10 11 6 -2 12 2 12 8 0 6 -6 9 -13 6 -8
-3 -14 1 -14 8 0 7 6 11 14 8 12 -5 18 8 14 30 -1 5 4 7 11 4 13 -5 14 -9 3
-42 -5 -15 -3 -14 8 4 8 13 16 20 19 15 3 -5 3 -3 2 4 -5 19 7 43 18 36 6 -4
4 4 -2 17 -7 13 -9 21 -5 17 5 -4 14 -3 22 4 7 6 16 8 20 4 3 -3 1 -6 -6 -6
-7 0 -9 -5 -5 -12 5 -7 3 -8 -7 -3 -11 7 -12 6 -2 -7 7 -8 11 -18 8 -21 -3 -4
-2 -5 2 -2 7 6 14 29 16 56 1 10 7 15 16 11 10 -4 12 -1 6 9 -5 7 -10 21 -10
31 -1 14 2 15 19 6 18 -9 19 -9 10 3 -12 16 -13 39 -1 39 4 0 10 0 13 0 4 0 1
-7 -6 -15 -9 -10 -9 -15 -1 -15 6 0 11 5 11 11 0 5 6 7 13 3 8 -6 8 -3 -1 9
-8 9 -11 21 -7 26 3 6 0 8 -8 5 -8 -3 -18 0 -23 7 -4 7 -3 10 4 6 17 -11 41 3
35 21 -4 14 -3 15 5 2 6 -8 8 -18 6 -22 -3 -4 -1 -8 4 -8 9 0 24 24 26 42 1 3
5 10 10 15 5 5 6 3 2 -4 -5 -9 0 -12 17 -11 13 1 24 8 24 15 0 10 -4 10 -16 0
-14 -10 -14 -10 -3 5 8 10 10 23 6 30 -6 9 -3 9 10 -1 21 -18 48 1 29 20 -15
15 -5 39 15 39 13 0 13 -2 -3 -13 -17 -13 -17 -14 4 -20 11 -3 24 0 28 5 4 7
1 8 -6 4 -8 -5 -12 -3 -10 5 4 30 -1 41 -17 35 -8 -3 -12 -2 -9 4 10 16 28 12
50 -13 11 -13 17 -18 13 -12 -4 7 -5 15 -1 18 3 4 2 7 -4 7 -5 0 -10 7 -10 15
0 8 7 15 14 15 8 0 12 -4 8 -9 -3 -5 -1 -12 4 -15 5 -4 8 1 7 10 -2 15 -61 49
-79 45 -5 -1 -6 3 -2 9 4 6 15 4 30 -6 27 -18 43 -3 18 17 -14 12 -16 12 -8
-1 9 -16 10 -16 -35 18 -3 2 4 2 15 0 11 -1 20 2 20 9 0 6 4 15 9 20 5 4 7 3
3 -2 -3 -6 4 -22 14 -35 18 -22 19 -22 10 -3 -14 28 -14 46 -1 38 6 -4 18 -1
27 7 9 7 14 8 10 2 -5 -8 4 -11 30 -9 20 1 39 7 41 14 2 6 7 9 12 6 4 -3 24
14 44 38 55 63 50 54 58 120 1 9 7 17 13 17 5 0 4 4 -3 9 -11 7 -11 9 2 14 9
4 15 1 13 -6 -1 -7 9 -11 26 -10 18 1 25 -2 21 -9 -4 -7 -2 -8 5 -4 6 4 9 12
6 17 -6 8 9 13 29 10 5 -1 4 5 -3 13 -7 8 -10 24 -6 35 6 21 -26 47 -45 36 -6
-3 -10 0 -10 7 -1 9 -5 7 -14 -4 -15 -20 -31 -25 -20 -6 5 7 3 8 -5 4 -7 -5
-10 -15 -7 -23 3 -8 1 -11 -4 -8 -14 9 -12 45 3 45 8 0 7 4 -3 10 -14 9 -7 15
14 11 5 -1 4 4 -2 12 -7 8 -9 17 -5 20 3 4 1 7 -6 7 -7 0 -11 -7 -8 -14 4 -10
1 -13 -9 -9 -11 4 -12 9 -4 18 8 10 8 15 0 20 -7 4 -7 11 -2 18 5 7 12 21 16
31 5 16 4 17 -9 6 -9 -8 -15 -8 -15 -2 0 6 9 13 19 17 11 3 18 12 15 20 -3 7
-1 16 5 19 6 4 7 14 4 23 -4 11 2 8 17 -7 14 -14 25 -19 28 -12 2 6 10 8 19 5
10 -4 8 3 -8 21 -30 35 -35 60 -8 46 10 -6 19 -8 19 -4 0 3 7 1 15 -6 8 -6 20
-8 26 -4 8 5 9 3 5 -5 -5 -7 -14 -10 -21 -7 -8 3 -12 -2 -10 -12 2 -9 4 -21 4
-25 1 -5 5 -6 10 -2 15 8 21 -9 9 -25 -8 -12 -9 -11 -4 5 6 19 5 19 -8 2 -9
-12 -16 -14 -21 -8 -3 6 -12 11 -18 11 -7 0 -6 -4 3 -10 8 -5 10 -10 4 -10 -5
0 -15 5 -22 12 -9 9 -15 8 -26 -8 -18 -24 -12 -31 11 -13 15 12 16 12 10 -4
-4 -11 -3 -16 3 -12 6 3 10 0 10 -7 0 -10 2 -10 9 1 5 8 14 10 21 6 8 -5 11
-4 6 3 -3 6 -2 13 4 17 5 3 10 0 10 -7 0 -10 2 -10 8 -1 4 7 16 10 27 9 11 -2
25 0 30 4 6 5 14 10 20 12 5 1 9 6 8 10 -2 5 3 8 10 8 15 0 15 23 2 54 -6 13
-4 21 3 24 7 2 10 7 8 10 -2 4 13 15 35 24 21 9 39 13 39 8 0 -13 52 -1 71 16
8 8 21 14 28 14 7 0 9 5 6 11 -4 6 -14 8 -22 5 -8 -4 -11 -1 -7 5 3 6 15 8 26
6 11 -3 17 -3 14 0 -3 4 -1 12 5 19 6 7 6 14 1 18 -6 3 -15 -1 -22 -9 -7 -8
-17 -15 -23 -15 -6 0 -3 6 6 13 18 13 16 54 -3 49 -6 -1 -9 2 -6 7 4 5 15 8
26 6 17 -3 19 -1 9 17 -7 12 -7 18 -1 14 6 -3 13 0 16 6 5 11 7 11 12 0 3 -6
10 -10 15 -6 5 3 -1 14 -13 24 -13 11 -19 19 -14 20 4 0 1 11 -8 25 -9 14 -12
25 -7 25 6 0 8 7 5 15 -4 8 -11 12 -17 8 -6 -3 -7 -1 -3 6 6 9 11 9 24 -1 12
-10 14 -10 8 -1 -4 7 -9 22 -11 34 -4 17 -2 19 10 9 8 -7 15 -9 15 -5 0 4 6 3
13 -2 6 -6 22 -9 35 -8 12 1 22 -3 22 -9 0 -6 7 -3 14 6 7 10 16 15 19 12 3
-3 5 14 5 38 0 38 -4 46 -29 61 -17 9 -27 13 -24 7 3 -5 2 -11 -3 -14 -4 -2
-7 10 -7 28 0 19 5 33 13 33 6 0 12 -6 12 -12 0 -7 12 -10 31 -7 25 4 30 2 24
-9 -8 -12 -6 -12 8 0 9 7 26 11 37 8 13 -3 18 -1 13 6 -4 6 0 8 9 5 9 -4 24 5
38 22 13 16 29 26 34 23 6 -3 8 -2 3 2 -4 5 0 19 8 32 12 17 12 23 3 23 -10 0
-9 3 1 9 8 5 12 19 9 35 -3 14 0 27 6 30 6 2 2 5 -9 6 -19 1 -19 2 -1 9 18 7
31 51 16 51 -4 0 -7 32 -7 70 0 39 -3 73 -8 78 -4 4 -5 -3 -2 -16 3 -12 1 -20
-4 -16 -5 3 -9 12 -9 21 0 9 -6 13 -14 10 -8 -3 -22 1 -33 8 -10 8 -13 15 -7
15 5 0 15 -5 22 -12 16 -16 16 4 0 22 -7 8 -1 4 15 -9 31 -28 34 -22 11 17
-17 26 -16 26 8 -2 18 -22 26 -25 30 -15 7 19 5 35 -4 32 -5 -2 -8 4 -8 13 0
10 6 14 15 11 8 -4 17 -1 21 5 4 6 3 8 -4 4 -6 -3 -13 -2 -17 4 -6 9 8 14 28
11 5 -1 6 3 2 9 -4 6 -1 18 7 27 7 9 8 14 2 10 -8 -4 -11 2 -10 18 0 14 4 25
9 25 16 0 5 40 -15 54 -13 9 -16 16 -9 16 8 0 11 7 8 20 -3 11 -1 18 3 15 16
-10 20 13 5 25 -12 10 -13 16 -3 28 9 11 9 14 1 9 -20 -12 -26 14 -7 29 18 13
18 14 -1 7 -18 -6 -19 -5 -5 12 9 11 10 16 3 11 -8 -4 -13 -1 -14 8 -1 16 -4
28 -9 44 -1 4 -2 11 -1 15 1 5 -3 6 -9 2 -5 -3 -10 -2 -10 4 0 5 5 13 10 16 7
4 8 11 1 18 -5 7 -9 17 -9 22 -1 6 -11 16 -24 24 -23 13 -23 13 1 -6 15 -13
20 -23 13 -27 -18 -11 -8 -74 13 -90 19 -14 19 -15 -4 -9 -17 4 -22 3 -17 -5
4 -7 2 -12 -4 -12 -7 0 -9 8 -5 21 5 14 4 19 -4 15 -7 -5 -8 -1 -4 10 5 13 3
15 -8 9 -11 -6 -12 -5 -1 6 14 15 16 33 3 25 -15 -10 -35 22 -23 37 7 8 7 17
-2 29 -7 10 -15 15 -18 13 -3 -3 -11 1 -17 9 -9 11 -9 16 0 22 7 4 9 3 5 -4
-3 -6 -2 -13 4 -17 5 -3 10 0 10 7 1 7 7 2 14 -11 8 -15 16 -19 20 -13 4 6 13
9 21 5 8 -3 15 0 15 6 0 6 -6 10 -12 9 -8 -2 -12 6 -10 22 8 86 9 99 3 95 -4
-2 -13 0 -21 6 -12 7 -12 9 4 9 13 0 17 5 13 19 -3 12 1 22 10 25 11 4 11 10
3 26 -6 11 -8 25 -5 30 3 5 0 12 -6 16 -8 5 -9 3 -4 -7 5 -8 -10 5 -33 29 -43
43 -54 50 -50 31 2 -6 -5 -13 -16 -14 -14 -3 -16 -1 -7 8 19 19 13 39 -21 70
-18 17 -27 27 -20 23 6 -4 12 -2 12 3 0 10 -14 15 -32 12 -5 0 -8 3 -8 9 0 12
2 12 35 0 21 -8 26 -7 22 2 -2 7 -10 12 -16 10 -7 -1 -10 2 -6 7 3 6 -8 25
-25 42 -16 18 -30 37 -29 43 0 7 2 7 5 -1 6 -13 34 -6 34 9 0 5 -4 6 -10 3 -5
-3 -10 -1 -10 5 0 6 -5 8 -12 4 -10 -6 -10 -4 0 8 10 13 10 17 0 22 -10 5 -10
7 0 12 6 3 9 10 6 16 -4 6 -10 5 -15 -3 -4 -7 -12 -10 -16 -5 -4 4 1 15 13 25
20 16 24 45 8 59 -4 4 -5 -1 -1 -10 3 -9 -2 -26 -12 -37 -17 -20 -19 -20 -32
-4 -8 9 -9 14 -2 10 6 -4 15 -2 19 4 4 7 3 9 -2 6 -6 -3 -16 -2 -24 3 -12 7
-12 11 1 26 9 11 9 15 2 10 -8 -4 -13 -2 -13 5 0 7 8 9 21 6 15 -4 19 -3 12 4
-6 6 -20 11 -32 12 -25 2 -28 12 -5 21 8 3 12 2 9 -4 -3 -6 -4 -10 0 -10 13 0
22 46 11 60 -10 13 -9 13 7 1 19 -15 24 -2 5 17 -20 20 5 35 28 16 18 -14 18
-15 -5 -4 -19 10 -22 9 -18 -2 2 -7 10 -12 16 -10 9 2 9 -3 1 -17 -15 -28 4
-35 26 -9 11 12 13 18 6 14 -9 -5 -13 -3 -11 5 7 39 -16 75 -44 70 -5 -1 -6 3
-2 9 3 6 11 8 16 5 5 -3 6 1 3 9 -3 9 -11 13 -17 9 -6 -4 -8 2 -5 15 4 13 2
20 -6 19 -20 -4 -18 51 3 72 10 10 16 22 13 26 -4 4 -7 10 -7 14 0 13 -35 43
-53 46 -9 1 -23 -2 -29 -8 -7 -5 -13 -6 -13 -3 0 4 -6 1 -14 -6 -8 -7 -11 -17
-8 -23 5 -10 -17 8 -65 50 -41 37 -53 46 -53 40 0 -3 -10 0 -22 7 -13 7 -27
11 -32 10 -4 -2 -15 3 -24 10 -9 7 -13 8 -9 2 3 -6 -1 -11 -9 -11 -8 0 -13 6
-10 13 3 8 1 16 -5 19 -5 4 -6 12 -2 18 5 9 3 9 -8 1 -16 -13 -51 -15 -43 -2
3 4 -2 8 -11 8 -9 0 -15 6 -14 13 3 24 -1 38 -10 32 -5 -3 -13 -1 -16 5 -4 6
-1 9 7 8 7 -2 12 3 10 10 -1 6 2 12 7 12 10 0 7 43 -5 61 -4 8 -3 9 4 5 7 -4
12 -2 12 3 0 6 -6 11 -12 11 -9 0 -8 4 2 10 12 7 12 10 1 10 -7 0 -11 6 -9 13
2 6 -7 23 -21 37 -13 14 -21 18 -17 10 7 -13 6 -13 -6 0 -7 8 -22 17 -33 18
-11 2 -24 7 -29 12 -5 5 -20 4 -33 -1 -14 -5 -29 -7 -34 -3 -5 3 -9 0 -9 -6 0
-7 -7 -9 -16 -6 -8 3 -12 2 -9 -4 3 -6 -1 -10 -9 -10 -10 0 -13 -6 -9 -17 6
-15 5 -16 -9 -3 -9 8 -12 17 -7 18 6 2 4 11 -3 20 -11 13 -11 15 2 8 8 -4 4 2
-10 14 -14 12 -19 19 -13 15 9 -4 11 -1 7 9 -7 19 -35 21 -53 4 -9 -8 -11 -8
-8 -2 4 7 1 14 -7 17 -8 3 -12 16 -11 31 2 14 0 26 -5 26 -5 0 -7 -15 -6 -34
2 -25 0 -33 -10 -29 -8 3 -14 -2 -14 -11 0 -9 -4 -16 -8 -16 -5 0 -8 10 -7 23
2 12 8 21 14 20 6 -2 11 8 11 22 0 13 7 28 15 33 9 4 17 18 18 30 1 12 5 22 9
22 4 0 3 11 -2 24 -5 13 -6 27 -2 32 4 4 1 4 -6 0 -7 -4 -15 0 -20 11 -4 12
-19 19 -41 20 -18 1 -43 10 -54 20 -11 10 -17 12 -13 6 4 -8 1 -13 -9 -13 -10
0 -14 -5 -9 -12 5 -10 4 -10 -6 -1 -11 10 -18 7 -37 -13 -13 -14 -28 -22 -33
-19 -5 3 -7 0 -4 -8 3 -8 0 -18 -7 -23 -8 -5 -10 -3 -4 6 5 8 3 11 -6 8 -8 -3
-14 -12 -13 -20 1 -8 -7 -14 -19 -14 -12 1 -21 -6 -23 -17 -1 -11 -5 -22 -9
-25 -3 -4 -3 9 0 27 5 30 4 33 -9 21 -9 -7 -13 -17 -9 -23 4 -6 1 -7 -6 -2 -9
5 -10 10 -2 18 15 15 14 30 -1 21 -6 -4 -8 -3 -5 3 4 6 18 11 32 11 15 0 22
-5 18 -12 -4 -6 1 -5 10 3 9 7 15 17 12 21 -3 5 0 12 6 16 8 5 9 3 4 -6 -5 -9
-4 -11 3 -6 7 4 10 17 8 29 -3 12 -5 25 -5 30 -1 4 -6 7 -12 7 -6 0 -8 -9 -4
-22 5 -21 4 -20 -15 5 -12 15 -26 25 -31 21 -5 -3 -9 0 -9 5 0 6 5 11 10 11 6
0 10 10 10 23 0 16 -3 18 -9 8 -7 -11 -10 -9 -16 9 -5 15 -13 20 -26 17 -13
-3 -23 2 -30 15 -6 12 -16 17 -26 14 -12 -5 -13 -3 -5 6 8 10 2 13 -29 14 -21
1 -39 -4 -39 -9 0 -6 -6 -2 -14 9 -8 10 -18 16 -22 11 -4 -4 -2 -7 4 -7 7 0
12 -7 12 -15 0 -8 -5 -15 -11 -15 -5 0 -8 4 -5 9 3 5 -1 12 -10 15 -9 3 -12 2
-9 -5 11 -17 -15 -40 -34 -30 -9 5 -26 9 -36 8 -11 -1 -19 3 -18 9 1 6 -5 11
-13 11 -19 0 -18 -3 9 -27 19 -18 19 -20 3 -14 -15 6 -17 4 -11 -6 5 -9 4 -11
-4 -6 -6 4 -9 11 -6 16 3 5 1 11 -5 15 -5 3 -10 14 -10 24 0 10 -15 24 -36 34
-24 12 -33 13 -29 5 4 -7 -1 -4 -9 6 -10 12 -16 15 -16 7 0 -9 -8 -11 -26 -7
-19 5 -24 4 -18 -6 4 -7 -3 -4 -16 7 -13 11 -20 14 -16 8 4 -7 2 -13 -3 -13
-6 0 -11 4 -11 8 0 4 -9 8 -20 9 -11 1 -18 -2 -15 -8 4 -5 -3 -6 -17 -1 -13 4
-32 7 -43 7 -11 -1 -27 3 -35 9 -8 6 -6 1 4 -12 20 -23 32 -30 20 -10 -4 7 -3
8 5 4 21 -14 -7 -35 -39 -29 -29 4 -42 -10 -17 -20 9 -4 9 -6 -1 -6 -7 -1 -15
6 -19 14 -5 14 -8 14 -27 -2 -20 -17 -20 -17 -7 0 12 15 12 20 1 30 -10 10
-11 9 -5 -3 7 -13 5 -12 -11 1 -10 8 -31 14 -45 13 -20 -2 -29 4 -38 23 -11
25 -12 25 -27 7 -14 -18 -15 -18 -5 3 11 22 -2 43 -14 23 -4 -6 -11 -8 -16 -5
-5 4 -9 0 -9 -7 0 -8 -5 -6 -11 5 -6 9 -14 15 -19 12 -12 -7 20 -45 37 -45 19
0 16 -35 -4 -51 -9 -8 -14 -9 -10 -2 4 7 0 14 -11 17 -19 6 -27 36 -10 36 5 0
6 5 3 10 -5 8 -11 7 -21 -1 -11 -9 -14 -9 -14 1 0 10 -3 10 -14 1 -10 -9 -16
-9 -21 -1 -5 8 -14 7 -30 -4 -21 -14 -24 -13 -40 4 -10 11 -16 20 -14 21 28 6
47 4 42 -4 -4 -6 1 -8 11 -4 10 4 22 7 27 7 4 0 6 8 3 18 -5 14 -4 14 4 2 6
-8 9 -17 7 -20 -2 -3 7 -6 20 -6 18 -1 23 3 20 17 -2 10 1 18 7 16 6 -1 13 4
16 12 3 9 0 11 -9 6 -8 -5 -11 -5 -7 0 4 4 2 15 -5 23 -10 13 -9 14 2 7 10 -5
12 -4 7 4 -6 9 -11 9 -22 0 -9 -7 -14 -8 -12 -3 2 5 -1 10 -7 11 -5 1 -9 -8
-7 -20 2 -12 -1 -17 -5 -12 -10 13 -56 12 -75 0 -8 -6 -7 -3 2 5 9 9 16 25 15
37 -1 12 2 20 7 17 5 -4 7 -13 4 -21 -3 -8 -2 -12 3 -8 5 3 11 -1 14 -7 2 -8
8 -9 13 -4 5 5 4 11 -3 13 -7 3 -13 11 -13 19 0 13 -13 19 -33 15 -5 -1 -5 3
-2 9 4 6 14 9 22 6 8 -3 11 -1 8 4 -10 16 -32 12 -39 -7z m-25 -130 c-12 -20
-14 -14 -5 12 4 9 9 14 11 11 3 -2 0 -13 -6 -23z m129 17 c0 -5 -2 -10 -4 -10
-3 0 -8 5 -11 10 -3 6 -1 10 4 10 6 0 11 -4 11 -10z m-272 -70 c-7 -11 -14
-17 -17 -15 -2 3 1 11 7 18 7 8 8 18 4 22 -4 5 -1 5 5 1 10 -5 10 -11 1 -26z
m241 7 c0 -9 -2 -8 -6 1 -2 6 -10 9 -15 6 -7 -4 -8 -2 -4 5 9 13 26 5 25 -12z
m36 5 c14 -10 17 -32 5 -32 -5 0 -10 7 -10 16 0 8 -4 12 -10 9 -5 -3 -10 -1
-10 4 0 13 11 14 25 3z m121 -4 c4 -7 3 -8 -4 -4 -8 4 -16 -3 -22 -20 -6 -15
-13 -24 -17 -21 -5 6 23 57 32 57 2 0 7 -5 11 -12z m-423 -28 c3 -11 2 -18 -3
-15 -4 3 -11 -6 -14 -19 -4 -16 -12 -23 -23 -21 -10 2 -24 4 -32 4 -11 1 -11
4 -1 16 7 8 15 13 19 11 9 -6 36 11 37 24 4 27 10 27 17 0z m472 10 c3 -5 1
-10 -4 -10 -6 0 -11 5 -11 10 0 6 2 10 4 10 3 0 8 -4 11 -10z m290 0 c-3 -5
-12 -10 -18 -10 -7 0 -6 4 3 10 19 12 23 12 15 0z m-314 -28 c-6 -2 -9 -8 -5
-13 3 -5 1 -9 -4 -9 -6 0 -9 11 -8 24 1 19 4 22 15 13 9 -8 10 -12 2 -15z
m449 13 c0 -2 -9 -3 -19 -2 -11 0 -18 5 -15 9 4 6 34 0 34 -7z m-477 -20 c-7
-21 -12 -19 -10 4 0 11 5 18 9 15 4 -3 5 -11 1 -19z m373 13 c4 -7 4 -10 -1
-6 -4 4 -15 2 -24 -5 -14 -11 -14 -10 -2 6 16 20 18 21 27 5z m-780 -26 c-17
-16 -18 -16 -5 5 7 12 15 20 18 17 3 -2 -3 -12 -13 -22z m869 8 c3 -6 -1 -7
-9 -4 -18 7 -21 14 -7 14 6 0 13 -4 16 -10z m30 -20 c3 -5 1 -10 -4 -10 -6 0
-11 5 -11 10 0 6 2 10 4 10 3 0 8 -4 11 -10z m85 -21 c0 -5 -4 -9 -8 -9 -5 0
-9 7 -9 15 0 8 4 12 9 9 4 -3 8 -9 8 -15z m-1740 -49 c0 -5 -8 -10 -17 -10
-15 0 -16 2 -3 10 19 12 20 12 20 0z m300 -61 c0 -11 -4 -18 -9 -15 -5 4 -11
1 -13 -5 -3 -8 -10 -6 -21 5 -11 11 -17 13 -17 5 0 -7 -3 -10 -6 -6 -3 3 -3
11 1 17 5 8 11 7 22 -2 13 -11 18 -10 27 5 14 22 16 21 16 -4z m-483 -55 c-3
-3 -12 -4 -19 -1 -8 3 -5 6 6 6 11 1 17 -2 13 -5z m249 -21 c-10 -11 -19 -7
-22 10 -2 15 0 16 12 6 8 -6 12 -14 10 -16z m59 -13 c3 -6 -1 -7 -9 -4 -18 7
-21 14 -7 14 6 0 13 -4 16 -10z m-45 -14 c0 -2 -9 -6 -20 -9 -11 -3 -18 -1
-14 4 5 9 34 13 34 5z m-384 -113 c-4 -10 -2 -13 7 -10 8 3 14 -1 14 -9 0 -22
-30 1 -32 24 -1 12 2 19 7 16 5 -4 7 -13 4 -21z m111 2 c0 -8 -3 -13 -5 -10
-3 3 -11 0 -19 -7 -7 -6 -16 -8 -20 -4 -3 3 -1 6 6 6 7 0 9 5 6 10 -3 6 -4 14
0 20 8 13 32 2 32 -15z m-363 -277 c-4 -6 2 -7 16 -3 15 5 20 4 16 -4 -5 -7
-1 -9 8 -5 10 4 16 1 16 -8 0 -22 -12 -29 -26 -17 -10 8 -12 6 -9 -10 2 -14
-1 -18 -11 -14 -8 3 -14 0 -14 -6 0 -6 -7 -8 -17 -4 -12 5 -14 3 -9 -8 4 -8 1
-6 -7 3 -8 10 -17 15 -20 11 -4 -3 -5 4 -2 16 2 11 0 21 -6 21 -18 0 -4 25 21
36 28 12 53 7 44 -8z m129 -2 c9 5 8 3 0 -6 -9 -10 -9 -19 -1 -34 9 -19 8 -19
-12 2 -18 19 -24 21 -31 10 -5 -7 -9 -9 -9 -4 0 14 34 45 38 34 2 -4 9 -5 15
-2z m3048 -10 c-6 -7 -7 -17 -3 -21 4 -5 1 -5 -6 -1 -7 4 -15 1 -18 -8 -6 -16
-34 -11 -34 6 0 6 6 8 14 5 15 -6 48 27 38 39 -4 4 -1 4 6 0 9 -6 10 -11 3
-20z m-51 -51 c0 -2 -6 -5 -13 -8 -8 -3 -14 1 -14 8 0 7 6 11 14 8 7 -3 13 -6
13 -8z m50 11 c0 -3 -4 -8 -10 -11 -5 -3 -10 -1 -10 4 0 6 5 11 10 11 6 0 10
-2 10 -4z m115 -6 c3 -5 1 -10 -4 -10 -6 0 -11 5 -11 10 0 6 2 10 4 10 3 0 8
-4 11 -10z m-21 -15 c3 -8 1 -15 -4 -15 -6 0 -10 7 -10 15 0 8 2 15 4 15 2 0
6 -7 10 -15z m-3322 -39 c3 2 8 -2 12 -11 4 -12 2 -14 -13 -6 -10 6 -20 8 -23
6 -3 -3 -5 2 -5 10 0 10 4 12 12 5 7 -5 14 -7 17 -4z m3631 -220 c7 4 9 4 5
-1 -11 -12 11 -47 25 -38 9 5 9 3 0 -9 -7 -8 -11 -17 -8 -20 3 -2 -2 -5 -10
-5 -8 0 -12 4 -9 9 3 4 -3 8 -14 8 -24 0 -34 10 -23 24 10 12 10 13 12 49 l2
22 4 -23 c3 -14 9 -20 16 -16z m41 16 c3 -5 -1 -9 -9 -9 -8 0 -15 4 -15 9 0 4
4 8 9 8 6 0 12 -4 15 -8z m14 -91 c-7 -9 -13 -18 -15 -20 -1 -2 -1 5 0 16 0
11 7 20 14 20 10 0 10 -4 1 -16z m-73 -11 c-3 -5 -1 -10 5 -10 6 0 9 -4 5 -9
-3 -6 -14 -9 -25 -8 -18 1 -18 2 -3 19 17 20 28 24 18 8z m-4162 -207 c-4 -10
-2 -14 4 -10 5 3 10 0 10 -8 0 -13 -4 -12 -19 2 -14 13 -18 13 -19 2 0 -10 -2
-11 -6 -1 -2 6 -10 9 -15 6 -7 -4 -8 -2 -4 5 4 6 11 9 15 7 4 -3 13 -1 21 5
20 12 20 12 13 -8z m-13 -53 c-8 -5 -19 -10 -25 -10 -5 0 -3 5 5 10 8 5 20 10
25 10 6 0 3 -5 -5 -10z m47 -7 c-4 -25 -16 -43 -30 -43 -7 0 -6 4 3 10 8 5 16
14 16 20 1 5 2 15 3 20 0 6 3 10 6 10 3 0 4 -8 2 -17z m64 -16 c-10 -9 -11 -8
-5 6 3 10 9 15 12 12 3 -3 0 -11 -7 -18z m-25 -32 c-1 -13 -4 -27 -7 -30 -5
-4 -4 41 0 53 4 10 8 -2 7 -23z m58 -4 c-8 -8 -34 -10 -38 -2 -3 4 6 7 19 7
14 0 22 -2 19 -5z m-130 -43 c-3 -5 -9 -6 -14 -3 -5 3 -13 -3 -19 -12 -6 -10
-11 -13 -11 -7 0 5 5 15 10 20 13 13 41 14 34 2z m46 9 c0 -2 -9 -12 -20 -22
-24 -21 -27 -14 -4 9 15 15 24 20 24 13z m-60 -63 c0 -8 -19 -13 -24 -6 -3 5
1 9 9 9 8 0 15 -2 15 -3z m-30 -86 c0 -5 4 -7 8 -4 5 3 9 -1 9 -9 0 -8 -4 -12
-9 -9 -4 3 -8 0 -8 -6 0 -7 -6 -10 -13 -7 -7 3 -21 -1 -32 -9 -11 -9 -14 -14
-6 -14 11 0 11 -3 1 -15 -7 -9 -19 -14 -26 -11 -19 7 -29 -14 -13 -25 9 -6 10
-9 2 -9 -28 0 -21 24 21 74 25 29 43 56 39 60 -4 4 0 4 10 0 9 -3 17 -10 17
-16z m-230 -13 c7 -8 9 -15 6 -15 -4 0 -14 7 -22 15 -9 8 -11 15 -6 15 5 0 15
-7 22 -15z m230 -47 c0 -5 -4 -6 -10 -3 -5 3 -10 0 -10 -7 0 -10 -3 -9 -9 2
-6 8 -8 17 -5 22 6 9 34 -1 34 -14z m-120 -38 c0 -5 -4 -10 -10 -10 -5 0 -10
5 -10 10 0 6 5 10 10 10 6 0 10 -4 10 -10z m155 0 c3 -5 1 -10 -4 -10 -6 0
-11 5 -11 10 0 6 2 10 4 10 3 0 8 -4 11 -10z m-325 -54 c0 -2 -7 -7 -16 -10
-8 -3 -12 -2 -9 4 6 10 25 14 25 6z m270 0 c0 -3 -4 -8 -10 -11 -5 -3 -10 -1
-10 4 0 6 5 11 10 11 6 0 10 -2 10 -4z m-351 -92 c4 3 8 -1 8 -9 0 -8 -4 -15
-9 -15 -4 0 -8 2 -8 4 0 2 -2 10 -3 18 -2 7 -2 10 0 5 3 -4 8 -5 12 -3z m4878
-59 c0 -8 -4 -12 -9 -9 -4 3 -8 9 -8 15 0 5 4 9 8 9 5 0 9 -7 9 -15z m-4750
-60 c0 -8 -4 -12 -9 -9 -5 3 -6 10 -3 15 9 13 12 11 12 -6z m4723 11 c0 -3 -4
-8 -10 -11 -5 -3 -10 -1 -10 4 0 6 5 11 10 11 6 0 10 -2 10 -4z m75 -35 c3 -5
1 -12 -5 -16 -5 -3 -10 1 -10 9 0 18 6 21 15 7z m5 -56 c11 -13 10 -14 -4 -9
-9 3 -16 10 -16 15 0 13 6 11 20 -6z m16 -66 c0 -17 -15 -39 -27 -39 -5 0 -9
5 -9 10 0 6 5 9 12 8 15 -4 17 24 3 35 -6 5 -4 7 5 4 8 -2 15 -10 16 -18z
m-51 -29 c-3 -5 -1 -11 5 -15 6 -4 7 -12 3 -18 -4 -7 5 -4 20 6 25 16 32 15
28 -7 -1 -4 6 -15 16 -22 17 -13 17 -14 -1 -7 -15 5 -18 3 -13 -10 3 -9 2 -17
-3 -17 -6 0 -10 2 -10 4 0 2 -3 12 -7 22 -5 13 -3 15 7 9 8 -5 11 -4 6 3 -8
13 -36 5 -33 -10 1 -6 -4 -12 -11 -13 -7 -2 -8 -1 -3 1 7 4 4 15 -5 30 -9 13
-21 21 -27 17 -6 -3 -7 -1 -3 5 4 7 1 12 -6 12 -8 1 -6 6 6 15 19 14 41 11 31
-5z m-4780 -60 c3 -6 -1 -7 -9 -4 -18 7 -21 14 -7 14 6 0 13 -4 16 -10z m4803
-45 c-6 -14 -15 -25 -20 -25 -5 0 -1 11 8 25 9 14 18 25 20 25 2 0 -2 -11 -8
-25z m52 -59 c-7 -7 -13 -7 -20 0 -6 6 -3 10 10 10 13 0 16 -4 10 -10z m-4720
-151 c0 -2 -8 -2 -17 1 -15 5 -15 3 1 -10 16 -12 22 -13 28 -3 6 9 8 9 8 0 0
-6 -4 -14 -10 -18 -5 -3 -6 -13 -3 -23 3 -9 -8 1 -24 23 -17 22 -28 43 -26 48
4 7 43 -9 43 -18z m4654 -147 c-3 -4 -11 -8 -17 -7 -9 0 -9 2 0 5 7 3 9 13 6
22 -4 14 -3 14 5 2 6 -8 8 -18 6 -22z m-54 11 c0 6 5 11 12 11 6 0 4 -7 -5
-18 -10 -10 -16 -21 -15 -23 2 -2 1 -2 -2 -1 -3 2 -5 7 -5 10 0 4 -4 14 -10
22 -8 13 -7 13 8 1 11 -9 17 -10 17 -2z m-4543 -34 c0 -8 -4 -12 -9 -9 -5 3
-6 10 -3 15 9 13 12 11 12 -6z m4575 1 c7 4 8 2 4 -4 -11 -19 5 -14 20 6 13
16 14 16 8 -1 -9 -24 -37 -38 -55 -26 -9 6 -10 9 -2 9 7 0 11 6 9 13 -1 6 -1
9 1 4 3 -4 10 -4 15 -1z m-4532 -26 c-12 -23 -16 -24 -26 -8 -4 6 -3 8 3 5 6
-4 13 0 17 8 3 8 8 15 11 15 3 0 1 -9 -5 -20z m4584 -37 c4 -9 2 -11 -7 -6
-19 12 -49 14 -42 3 3 -6 -1 -7 -9 -4 -27 10 -18 20 18 21 22 0 37 -5 40 -14z
m-4586 -18 c-3 -3 -9 2 -12 12 -6 14 -5 15 5 6 7 -7 10 -15 7 -18z m12 -29 c0
-2 -7 -7 -16 -10 -8 -3 -12 -2 -9 4 6 10 25 14 25 6z m90 -146 c0 -6 -9 -2
-20 7 -11 10 -20 19 -20 21 0 1 9 -2 20 -8 11 -6 20 -15 20 -20z m20 20 c0 -5
-2 -10 -4 -10 -3 0 -8 5 -11 10 -3 6 -1 10 4 10 6 0 11 -4 11 -10z m-80 -15
c0 -12 -19 -12 -23 0 -4 9 -1 12 9 8 7 -3 14 -7 14 -8z m95 -15 c-3 -5 -12
-10 -18 -10 -7 0 -6 4 3 10 19 12 23 12 15 0z m-35 -25 c0 -7 -12 -12 -26 -12
-18 0 -22 2 -13 8 8 5 10 9 6 9 -5 0 -6 4 -2 10 8 12 35 1 35 -15z m11 -34
c-7 -5 -12 -12 -11 -17 1 -5 -4 -10 -12 -12 -9 -2 -8 0 2 7 8 6 11 11 6 11 -5
0 -3 7 4 15 7 9 15 13 19 10 3 -3 0 -10 -8 -14z m54 -12 c11 -16 1 -19 -13 -3
-7 8 -8 14 -3 14 5 0 13 -5 16 -11z m-26 -12 c8 -10 7 -14 -2 -14 -8 0 -14 6
-14 14 0 7 1 13 2 13 2 0 8 -6 14 -13z m4156 -47 c3 -5 1 -10 -4 -10 -6 0 -11
5 -11 10 0 6 2 10 4 10 3 0 8 -4 11 -10z m-4155 -14 c0 -2 -7 -9 -15 -16 -13
-11 -14 -10 -9 4 5 14 24 23 24 12z m73 -12 c-1 -5 3 -14 8 -21 7 -7 6 -14 -1
-18 -6 -3 -7 -11 -4 -17 4 -7 2 -8 -4 -4 -8 5 -12 -1 -12 -14 0 -12 -4 -18
-11 -15 -6 4 -8 14 -4 24 5 12 3 13 -5 5 -9 -9 -9 -17 -1 -32 8 -15 8 -20 -2
-18 -42 6 -49 38 -11 55 25 11 26 13 9 31 -9 10 -14 23 -10 29 7 13 51 8 48
-5z m3974 -196 c0 -13 -1 -17 -4 -10 -3 6 -9 10 -14 7 -5 -4 -6 1 -3 9 9 23
20 19 21 -6z m7 -100 c-3 -5 -10 -6 -15 -3 -5 4 -9 0 -10 -7 0 -7 -4 -4 -8 7
-12 28 -4 37 19 23 10 -7 16 -16 14 -20z m-394 -92 c0 -3 -4 -8 -10 -11 -5 -3
-10 -1 -10 4 0 6 5 11 10 11 6 0 10 -2 10 -4z m110 -46 c0 -5 -7 -10 -16 -10
-8 0 -12 5 -9 10 3 6 10 10 16 10 5 0 9 -4 9 -10z m-73 -197 c0 -7 -4 -13 -8
-13 -4 0 -9 6 -12 13 -3 8 0 14 7 14 7 0 13 -6 13 -14z m-3029 -78 c-3 -3 -9
2 -12 12 -6 14 -5 15 5 6 7 -7 10 -15 7 -18z m589 -97 c-3 -8 -6 -5 -6 6 -1
11 2 17 5 13 3 -3 4 -12 1 -19z m-42 2 c4 -6 11 -8 16 -5 5 4 9 2 9 -3 0 -5
-9 -12 -19 -15 -15 -4 -18 -1 -13 12 5 13 3 14 -9 4 -13 -10 -16 -10 -16 2 0
17 23 20 32 5z m-654 -24 c-10 -11 -9 -15 4 -18 15 -3 15 -5 0 -23 -14 -17
-16 -18 -11 -2 3 10 2 16 -2 14 -4 -3 -13 1 -20 9 -12 13 -8 18 11 15 4 -1 10
6 14 14 3 9 8 14 11 11 3 -3 -1 -12 -7 -20z m-86 -26 c-3 -5 -12 -10 -18 -10
-7 0 -6 4 3 10 19 12 23 12 15 0z m98 -50 c8 0 8 3 -1 8 -10 7 -8 12 6 25 15
14 19 14 19 2 0 -8 -4 -12 -9 -9 -4 3 -8 0 -8 -5 0 -6 5 -11 11 -11 7 0 0 -9
-14 -20 -15 -12 -30 -20 -34 -20 -4 1 -10 -5 -13 -14 -4 -12 -8 -9 -17 9 -7
16 -7 23 -1 18 8 -4 9 4 5 24 -8 41 3 50 26 19 10 -15 24 -26 30 -26z m582
-10 c8 0 15 5 15 11 0 5 -4 8 -9 4 -5 -3 -12 -1 -15 4 -4 5 2 8 11 7 10 -2 18
-12 19 -23 1 -18 -3 -19 -33 -13 -30 7 -34 6 -28 -8 5 -13 3 -14 -5 -6 -9 9
-8 17 1 33 11 17 15 18 22 6 4 -8 15 -15 22 -15z m-539 -12 c4 4 3 0 -4 -9 -7
-9 -10 -25 -6 -35 3 -11 2 -15 -3 -8 -13 17 -42 24 -49 12 -4 -6 -3 -8 4 -4 6
3 13 2 16 -3 7 -10 -20 -9 -30 2 -11 11 39 57 52 46 6 -5 15 -5 20 -1z m54
-22 c-5 -13 -7 -26 -4 -29 3 -2 -2 -7 -10 -10 -11 -4 -13 -1 -9 11 6 14 4 15
-8 5 -13 -10 -16 -10 -16 2 0 8 4 12 9 9 4 -3 8 1 8 8 0 11 2 10 9 0 6 -10 10
-9 14 7 3 12 8 21 11 21 3 0 1 -11 -4 -24z m-145 -32 c8 -3 12 -10 9 -16 -8
-12 -44 31 -43 51 0 10 3 8 9 -7 5 -12 16 -25 25 -28z m231 -16 c5 4 6 3 1 -2
-4 -5 -1 -19 7 -31 12 -18 12 -22 1 -22 -8 0 -11 5 -8 11 3 7 1 6 -7 -1 -14
-13 -4 -37 12 -27 6 4 14 0 19 -7 8 -12 11 -12 19 1 8 12 9 9 6 -10 -3 -14 -5
-28 -5 -31 -1 -4 -8 -10 -17 -13 -9 -3 -12 -2 -9 5 4 6 -1 19 -11 30 -13 14
-20 16 -30 8 -10 -8 -12 -6 -9 10 2 11 -2 24 -8 28 -7 5 -13 18 -13 30 -1 21
0 21 25 5 l26 -16 -20 24 c-12 14 -13 20 -4 12 9 -6 20 -8 25 -4z m2637 -33
c-3 -9 -8 -14 -10 -11 -3 3 -2 9 2 15 9 16 15 13 8 -4z m61 -32 c5 -12 4 -13
-7 -5 -8 7 -16 10 -19 7 -2 -3 -5 1 -5 9 0 18 24 10 31 -11z m-590 -9 c3 -8 2
-12 -4 -9 -6 3 -10 10 -10 16 0 14 7 11 14 -7z m-9 -24 c3 -5 1 -10 -4 -10 -6
0 -11 5 -11 10 0 6 2 10 4 10 3 0 8 -4 11 -10z m-2001 -29 c-2 -3 -12 3 -22
13 -16 17 -16 18 5 5 12 -7 20 -15 17 -18z m2061 -9 c1 -12 -2 -19 -7 -16 -5
4 -7 12 -4 20 7 17 -6 18 -22 2 -9 -9 -7 -15 6 -25 15 -13 15 -13 -5 -3 -23
11 -31 30 -13 30 6 0 9 3 9 8 -3 18 2 22 18 14 9 -6 17 -19 18 -30z m205 -3
c0 -5 -4 -9 -8 -9 -5 0 -9 7 -9 15 0 8 4 12 9 9 4 -3 8 -9 8 -15z m-84 -4 c-1
-8 -5 -17 -8 -21 -5 -4 -4 16 1 34 3 9 9 -1 7 -13z m124 11 c0 -2 -7 -7 -16
-10 -8 -3 -12 -2 -9 4 6 10 25 14 25 6z m93 -11 c4 -8 3 -16 -1 -19 -4 -3 -9
4 -9 15 -2 23 3 25 10 4z m57 9 c0 -8 -19 -13 -24 -6 -3 5 1 9 9 9 8 0 15 -2
15 -3z m-1823 -49 c-7 -13 -14 -20 -15 -14 -2 5 2 16 8 24 18 21 20 18 7 -10z
m1817 -15 c-6 -6 -10 -3 -10 10 0 13 4 16 10 10 7 -7 7 -13 0 -20z m56 20 c0
-5 -4 -10 -10 -10 -5 0 -10 5 -10 10 0 6 5 10 10 10 6 0 10 -4 10 -10z m-475
-11 c11 -16 1 -19 -13 -3 -7 8 -8 14 -3 14 5 0 13 -5 16 -11z m-1111 -15 c3
-8 2 -12 -4 -9 -6 3 -10 10 -10 16 0 14 7 11 14 -7z m46 8 c0 -5 -7 -9 -15 -9
-8 0 -12 4 -9 9 3 4 9 8 15 8 5 0 9 -4 9 -8z m-280 -22 c0 -5 -2 -10 -4 -10
-3 0 -8 5 -11 10 -3 6 -1 10 4 10 6 0 11 -4 11 -10z m223 -5 c9 -4 16 -15 15
-24 -2 -9 2 -15 9 -14 8 2 9 -6 3 -26 -4 -15 -4 -35 2 -44 7 -13 5 -15 -7 -11
-8 3 -12 11 -8 17 4 6 0 8 -10 4 -9 -3 -19 -2 -22 3 -3 5 0 10 7 13 7 2 3 2
-9 1 -12 -2 -25 1 -28 6 -4 6 -3 10 2 9 24 -4 31 3 27 26 -2 14 0 25 6 25 6 0
8 5 5 10 -4 6 -10 8 -15 5 -5 -3 -11 -1 -14 4 -7 10 9 9 37 -4z m-565 -9 c-7
-8 -15 -12 -17 -11 -5 6 10 25 20 25 5 0 4 -6 -3 -14z m472 -1 c9 2 16 -5 16
-15 0 -15 -4 -16 -19 -8 -16 8 -18 7 -13 -10 4 -12 0 -24 -11 -33 -15 -11 -16
-11 -5 1 17 19 15 30 -5 30 -14 0 -15 2 -5 9 8 4 13 11 13 15 -3 21 0 30 7 20
4 -6 14 -10 22 -9z m-87 -15 c4 0 6 4 3 9 -7 11 21 8 31 -4 4 -4 2 -5 -4 -1
-7 4 -13 2 -13 -3 0 -17 -26 -13 -41 7 -11 14 -11 15 1 5 8 -7 18 -13 23 -13z
m-139 2 c3 -5 -1 -9 -9 -9 -8 0 -15 4 -15 9 0 4 4 8 9 8 6 0 12 -4 15 -8z
m1313 -28 c-8 -8 -48 -13 -43 -6 2 4 14 8 26 9 12 1 20 0 17 -3z m-941 -29
c-2 -14 -16 -22 -16 -10 0 3 0 10 0 15 0 6 4 10 9 10 5 0 8 -7 7 -15z m385
-29 c7 4 9 3 5 -4 -9 -15 -43 -11 -43 5 0 9 4 10 13 2 7 -6 19 -7 25 -3z m396
-2 c-3 -3 -12 -4 -19 -1 -8 3 -5 6 6 6 11 1 17 -2 13 -5z m-28 -20 c4 3 8 -5
8 -16 2 -20 1 -20 -12 -2 -8 11 -14 24 -14 29 0 6 3 4 6 -3 2 -6 8 -10 12 -8z
m-783 -12 c3 -23 4 -24 21 -11 9 8 14 9 10 3 -9 -15 19 -38 34 -28 8 4 9 3 5
-4 -10 -17 -27 -15 -42 6 -12 16 -13 15 -14 -5 0 -12 -12 -34 -27 -48 -26 -23
-29 -24 -40 -8 -16 20 -17 47 -3 38 6 -4 8 -10 6 -14 -7 -10 32 -7 41 4 5 4 3
5 -3 2 -17 -10 -39 19 -23 29 8 5 9 3 4 -6 -5 -8 -4 -11 3 -6 12 7 12 46 0 46
-4 0 -8 4 -8 9 0 13 35 6 36 -7z m971 -27 c2 -14 0 -25 -4 -25 -5 0 -8 13 -8
30 -1 34 8 31 12 -5z m-67 0 c5 3 11 1 14 -4 4 -5 0 -8 -6 -7 -21 3 -38 16
-38 29 0 7 5 4 11 -6 6 -9 14 -15 19 -12z m-198 3 c-6 -6 -22 -13 -34 -15 -18
-2 -19 -1 -8 6 8 5 17 8 21 5 4 -2 10 0 14 6 3 5 9 10 13 10 3 0 1 -5 -6 -12z
m21 -13 c-3 -9 -8 -14 -10 -11 -3 3 -2 9 2 15 9 16 15 13 8 -4z m322 5 c3 -5
1 -10 -4 -10 -6 0 -11 5 -11 10 0 6 2 10 4 10 3 0 8 -4 11 -10z m41 -2 c-3
-25 -16 -36 -36 -31 -19 5 -19 6 3 24 26 22 36 24 33 7z m-201 -17 c3 -5 2
-12 -3 -15 -5 -3 -9 1 -9 9 0 17 3 19 12 6z m490 0 c2 -4 0 -13 -5 -21 -8 -13
-13 -12 -31 6 l-21 22 26 0 c15 0 28 -4 31 -7z m-1292 -8 c-7 -2 -13 -12 -13
-21 0 -15 -2 -15 -10 -2 -9 15 4 30 25 29 6 0 4 -3 -2 -6z m47 3 c0 -2 -8 -10
-17 -17 -16 -13 -17 -12 -4 4 13 16 21 21 21 13z m56 -11 c-1 -8 -5 -17 -8
-21 -5 -4 -4 16 1 34 3 9 9 -1 7 -13z m159 -5 c3 -5 1 -10 -4 -10 -6 0 -11 5
-11 10 0 6 2 10 4 10 3 0 8 -4 11 -10z m145 2 c0 -5 -7 -9 -15 -9 -8 0 -12 4
-9 9 3 4 9 8 15 8 5 0 9 -4 9 -8z m-444 -21 c-3 -5 1 -11 9 -15 8 -3 19 3 24
12 6 9 11 12 11 6 0 -16 -27 -37 -39 -30 -5 4 -12 2 -16 -4 -4 -6 -11 -8 -16
-5 -5 4 -9 1 -9 -5 0 -6 -5 -8 -11 -5 -6 4 1 17 18 31 30 25 38 30 29 15z
m106 -13 c-14 -14 -65 -20 -56 -6 3 5 15 7 26 5 11 -3 21 0 25 9 3 8 8 12 11
9 3 -3 1 -10 -6 -17z m158 12 c0 -5 -2 -10 -4 -10 -3 0 -8 5 -11 10 -3 6 -1
10 4 10 6 0 11 -4 11 -10z m604 -6 c5 -14 4 -15 -9 -4 -17 14 -19 20 -6 20 5
0 12 -7 15 -16z m-109 -3 c-2 -4 3 -15 11 -26 8 -10 14 -13 14 -7 0 7 4 12 8
12 5 0 9 -7 9 -15 0 -8 -4 -12 -8 -9 -4 2 -9 -5 -11 -17 -4 -26 -32 -33 -49
-13 -8 10 -9 14 0 14 7 0 10 13 8 33 -3 23 0 34 9 34 7 0 11 -3 9 -6z m-411
-9 c3 -5 -1 -9 -9 -9 -8 0 -12 4 -9 9 3 4 7 8 9 8 2 0 6 -4 9 -8z m794 -14
c-2 -7 -12 -18 -23 -25 -11 -7 -14 -12 -7 -13 6 0 12 -5 12 -12 0 -9 -3 -9
-12 0 -13 13 -29 16 -27 5 3 -20 -2 -33 -13 -33 -6 0 -8 3 -5 7 4 3 2 12 -3
18 -7 8 -4 19 9 33 21 24 41 31 21 7 -7 -8 -9 -15 -4 -15 13 0 41 20 29 20 -5
0 -3 5 5 10 19 13 20 12 18 -2z m-770 -28 c-7 -11 -14 -17 -17 -15 -2 3 1 11
7 18 7 8 8 18 4 22 -4 5 -1 5 5 1 10 -5 10 -11 1 -26z m129 16 c4 -4 1 -6 -7
-4 -9 2 -14 -3 -12 -12 2 -8 0 -11 -4 -7 -4 4 -9 14 -10 21 -2 14 20 16 33 2z
m188 -16 c3 -17 2 -20 -9 -10 -8 6 -16 7 -18 3 -3 -4 -3 -3 -2 4 2 6 0 14 -4
16 -4 2 -1 2 6 1 6 -2 12 2 12 8 0 18 10 3 15 -22z m561 13 c-3 -22 -20 -33
-35 -23 -12 6 -12 12 -3 23 15 17 40 18 38 0z m-909 -23 c-2 -23 -10 -17 -12
10 -1 10 2 17 6 14 4 -2 7 -13 6 -24z m480 3 c-4 -3 -1 -13 6 -22 11 -14 10
-14 -5 -2 -16 12 -16 31 -1 31 4 0 3 -3 0 -7z m-204 -20 c-7 -2 -13 -9 -13
-15 0 -6 7 -8 14 -5 10 4 13 1 9 -9 -5 -14 -7 -14 -21 -1 -15 16 -9 38 11 36
9 0 9 -2 0 -6z m-243 -13 c-8 -5 -22 -9 -30 -9 -10 0 -8 3 5 9 27 12 43 12 25
0z"/>
<path d="M2336 4668 c3 -4 11 -5 19 -1 21 7 19 12 -4 10 -11 0 -18 -5 -15 -9z"/>
<path d="M1045 4020 c-3 -5 -2 -10 4 -10 5 0 13 5 16 10 3 6 2 10 -4 10 -5 0
-13 -4 -16 -10z"/>
<path d="M4648 3663 c7 -3 16 -2 19 1 4 3 -2 6 -13 5 -11 0 -14 -3 -6 -6z"/>
<path d="M414 3098 c-10 -13 -12 -17 -4 -11 8 6 18 12 23 12 8 1 11 11 4 17
-2 2 -12 -6 -23 -18z"/>
<path d="M375 3050 c-3 -5 -1 -10 4 -10 6 0 11 5 11 10 0 6 -2 10 -4 10 -3 0
-8 -4 -11 -10z"/>
<path d="M4956 2581 c-3 -5 2 -15 12 -22 15 -12 16 -12 5 2 -7 9 -10 19 -6 22
3 4 4 7 0 7 -3 0 -8 -4 -11 -9z"/>
<path d="M605 1670 c-3 -6 1 -13 10 -16 9 -4 14 -13 10 -22 -5 -12 -3 -13 10
-2 15 12 14 15 -5 25 -11 6 -17 14 -14 18 4 4 5 7 1 7 -3 0 -9 -5 -12 -10z"/>
<path d="M1090 805 c0 -5 5 -17 10 -25 5 -8 10 -10 10 -5 0 6 -5 17 -10 25 -5
8 -10 11 -10 5z"/>
<path d="M1095 750 c-3 -6 1 -7 9 -4 18 7 21 14 7 14 -6 0 -13 -4 -16 -10z"/>
<path d="M1286 647 c3 -10 9 -15 12 -12 3 3 0 11 -7 18 -10 9 -11 8 -5 -6z"/>
<path d="M1342 584 c10 -10 20 -16 22 -13 3 3 -5 11 -17 18 -21 13 -21 12 -5
-5z"/>
<path d="M2327 433 c-7 -15 -2 -36 11 -40 14 -5 16 13 2 22 -6 4 -8 11 -5 16
4 5 4 9 1 9 -3 0 -7 -3 -9 -7z"/>
<path d="M2347 279 c4 -13 8 -18 11 -10 2 7 -1 18 -6 23 -8 8 -9 4 -5 -13z"/>
<path d="M3160 175 c9 -11 10 -19 1 -28 -8 -10 -7 -14 3 -14 11 0 13 14 7 50
0 4 -6 7 -12 7 -8 0 -8 -5 1 -15z"/>
<path d="M3475 151 c-3 -5 -2 -12 3 -15 5 -3 9 1 9 9 0 17 -3 19 -12 6z"/>
<path d="M3626 171 c-4 -5 -2 -12 3 -15 5 -4 12 -2 15 3 4 5 2 12 -3 15 -5 4
-12 2 -15 -3z"/>
<path d="M2725 4858 c1 -12 8 -24 16 -26 8 -3 11 -1 7 3 -4 5 -2 15 4 24 7 9
8 13 4 9 -5 -4 -14 -3 -21 2 -8 7 -11 4 -10 -12z"/>
<path d="M2790 4858 c0 -4 -3 -7 -7 -7 -19 3 -36 -2 -30 -8 4 -3 0 -15 -10
-25 -9 -10 -13 -19 -10 -19 25 -5 33 -4 43 3 8 5 22 -3 38 -23 22 -26 29 -29
39 -19 9 10 9 11 0 6 -6 -3 -14 -2 -18 4 -3 5 2 10 12 11 14 0 15 2 3 6 -16 6
-30 23 -30 37 0 5 8 2 18 -5 9 -7 7 -2 -6 12 -12 14 -20 28 -17 31 3 2 -2 5
-10 5 -8 0 -15 -4 -15 -9z m25 -19 c4 -5 -2 -6 -12 -2 -17 6 -17 5 -2 -13 9
-10 19 -26 23 -34 4 -8 -2 -3 -14 13 -22 27 -42 36 -37 16 1 -6 -6 -13 -15
-14 -16 -3 -17 -2 -1 19 18 23 49 31 58 15z"/>
<path d="M2525 4809 c-4 -6 -5 -12 -2 -15 2 -3 7 2 10 11 7 17 1 20 -8 4z"/>
<path d="M2035 4796 c5 -16 3 -17 -10 -6 -11 9 -15 9 -15 1 0 -7 -4 -9 -10 -6
-5 3 -10 1 -10 -6 0 -7 -3 -9 -7 -6 -9 10 -43 -50 -47 -83 -2 -22 2 -31 15
-35 11 -4 19 -11 19 -16 0 -6 9 -7 21 -4 16 5 20 4 15 -6 -4 -8 0 -6 8 4 9 9
18 17 21 17 17 1 34 13 29 21 -3 5 1 12 9 15 16 6 16 52 0 63 -6 3 -18 20 -27
36 -10 17 -15 21 -11 11z"/>
<path d="M2580 4776 c0 -2 7 -9 15 -16 9 -7 15 -8 15 -2 0 5 -7 12 -15 16 -8
3 -15 4 -15 2z"/>
<path d="M2430 4726 c0 -2 8 -10 18 -17 15 -13 16 -12 3 4 -13 16 -21 21 -21
13z"/>
<path d="M3401 4674 c6 -7 16 -11 21 -8 11 7 3 17 -18 20 -12 2 -13 -1 -3 -12z"/>
<path d="M3686 4594 c-10 -7 -13 -15 -8 -18 6 -3 13 1 16 10 5 12 10 14 19 5
10 -8 14 -7 14 2 0 17 -19 17 -41 1z"/>
<path d="M3786 4585 c-3 -10 -2 -13 5 -10 5 4 16 2 23 -4 9 -8 13 -7 13 4 0 8
-3 13 -5 10 -3 -3 -11 0 -17 5 -9 8 -14 6 -19 -5z"/>
<path d="M3736 4574 c-3 -9 -3 -22 1 -29 6 -10 11 -10 23 3 13 14 12 15 -4 9
-12 -5 -16 -3 -13 5 2 7 10 12 16 10 7 -1 10 2 6 8 -9 15 -22 12 -29 -6z"/>
<path d="M1396 4572 c-4 -7 2 -22 15 -34 19 -20 20 -21 12 -3 -6 11 -12 27
-15 35 -3 10 -6 11 -12 2z"/>
<path d="M1624 4454 c-2 -20 0 -21 12 -9 17 17 17 22 2 28 -8 3 -14 -5 -14
-19z"/>
<path d="M4175 4411 c-11 -5 -23 -7 -27 -4 -5 2 -8 -1 -8 -7 0 -6 -4 -9 -8 -6
-10 6 -8 -56 2 -72 3 -6 16 -10 29 -9 52 5 79 47 47 74 -10 9 -17 20 -14 25 6
9 6 9 -21 -1z"/>
<path d="M1356 4393 c-6 -14 -5 -15 5 -6 7 7 10 15 7 18 -3 3 -9 -2 -12 -12z"/>
<path d="M1455 4400 c3 -5 8 -10 11 -10 2 0 4 5 4 10 0 6 -5 10 -11 10 -5 0
-7 -4 -4 -10z"/>
<path d="M3993 4355 c-10 -11 -9 -13 6 -12 11 1 17 7 14 14 -6 16 -5 16 -20
-2z"/>
<path d="M1266 4265 c4 -8 11 -15 16 -15 6 0 5 6 -2 15 -7 8 -14 15 -16 15 -2
0 -1 -7 2 -15z"/>
<path d="M816 4223 c-6 -14 -5 -15 5 -6 7 7 10 15 7 18 -3 3 -9 -2 -12 -12z"/>
<path d="M1169 4203 c-13 -16 -12 -17 4 -4 9 7 17 15 17 17 0 8 -8 3 -21 -13z"/>
<path d="M755 4200 c3 -5 8 -10 11 -10 2 0 4 5 4 10 0 6 -5 10 -11 10 -5 0 -7
-4 -4 -10z"/>
<path d="M855 4180 c3 -5 8 -10 11 -10 2 0 4 5 4 10 0 6 -5 10 -11 10 -5 0 -7
-4 -4 -10z"/>
<path d="M835 4160 c3 -5 8 -10 11 -10 2 0 4 5 4 10 0 6 -5 10 -11 10 -5 0 -7
-4 -4 -10z"/>
<path d="M824 4142 c6 -9 -21 -27 -36 -24 -4 1 -5 -5 -1 -14 3 -8 2 -14 -3
-13 -20 3 -34 -2 -34 -12 0 -8 6 -7 17 2 15 12 16 12 10 -6 -7 -20 -7 -20 8
-1 8 11 15 24 15 28 0 5 10 0 21 -11 18 -17 24 -18 35 -6 19 19 18 31 -1 15
-18 -15 -42 1 -30 20 5 8 10 8 21 -1 8 -6 14 -8 14 -4 0 4 7 2 15 -5 9 -7 12
-17 7 -24 -17 -23 -8 -41 20 -38 14 2 29 -2 33 -8 5 -9 1 -10 -16 -5 -18 5
-16 1 10 -17 36 -23 65 -33 56 -18 -3 5 -1 11 3 14 5 3 8 17 7 31 -2 14 1 25
7 25 6 0 -1 9 -15 20 -14 11 -28 20 -30 20 -10 0 -2 -65 8 -72 6 -5 5 -12 -4
-20 -11 -11 -13 -11 -6 1 5 9 4 12 -2 8 -6 -4 -10 3 -9 15 1 18 -5 22 -26 23
-14 0 -30 3 -34 7 -3 4 3 6 14 3 12 -2 25 1 28 7 5 7 2 8 -6 3 -10 -6 -12 -4
-7 8 3 9 1 19 -5 23 -7 5 -8 2 -3 -6 5 -8 3 -11 -6 -8 -8 3 -13 12 -11 19 2 8
0 11 -3 7 -4 -4 -21 0 -37 8 -17 9 -27 11 -24 6z m162 -77 c1 -8 -2 -15 -7
-15 -5 0 -9 3 -10 8 0 4 -2 15 -4 26 -3 14 -1 16 8 7 6 -6 12 -18 13 -26z m4
-39 c0 -2 -8 -10 -17 -17 -16 -13 -17 -12 -4 4 13 16 21 21 21 13z"/>
<path d="M868 4143 c7 -3 16 -2 19 1 4 3 -2 6 -13 5 -11 0 -14 -3 -6 -6z"/>
<path d="M830 4110 c0 -5 5 -10 11 -10 5 0 7 5 4 10 -3 6 -8 10 -11 10 -2 0
-4 -4 -4 -10z"/>
<path d="M996 4098 c3 -4 11 -5 19 -1 21 7 19 12 -4 10 -11 0 -18 -5 -15 -9z"/>
<path d="M4322 4077 c-7 -8 -7 -18 -2 -27 5 -8 6 -19 3 -25 -4 -5 -3 -7 2 -3
4 4 13 0 20 -9 9 -13 14 -13 20 -3 5 8 4 11 -2 7 -12 -8 -26 20 -17 34 3 5 2
9 -3 8 -20 -3 -27 2 -13 11 8 5 12 12 9 15 -4 3 -11 0 -17 -8z"/>
<path d="M615 4052 c2 -2 -4 -12 -15 -21 -28 -24 -31 -81 -4 -81 8 0 12 -5 9
-10 -4 -6 10 -10 38 -9 37 2 44 5 39 18 -5 13 -3 14 9 4 11 -9 14 -7 15 13 1
13 -2 21 -8 18 -6 -4 -5 2 1 14 9 17 8 22 -9 27 -11 3 -20 10 -20 15 0 4 -13
10 -30 12 -16 3 -28 2 -25 0z"/>
<path d="M893 3835 c0 -7 6 -11 14 -8 7 3 13 6 13 8 0 2 -6 5 -13 8 -8 3 -14
-1 -14 -8z"/>
<path d="M938 3818 c16 -16 15 -33 -1 -20 -18 15 -54 11 -54 -5 0 -10 4 -10
11 -3 5 5 17 10 26 10 13 0 13 -2 0 -11 -12 -9 -12 -10 4 -5 14 5 17 3 12 -11
-6 -15 -4 -15 12 2 18 20 26 49 10 39 -4 -3 -8 0 -8 5 0 6 -5 11 -12 11 -9 0
-9 -3 0 -12z"/>
<path d="M896 3757 c3 -10 9 -15 12 -12 3 3 0 11 -7 18 -10 9 -11 8 -5 -6z"/>
<path d="M4790 3550 c0 -5 5 -10 11 -10 5 0 7 5 4 10 -3 6 -8 10 -11 10 -2 0
-4 -4 -4 -10z"/>
<path d="M375 3319 c-4 -6 -5 -12 -2 -15 2 -3 7 2 10 11 7 17 1 20 -8 4z"/>
<path d="M4796 3298 c3 -4 11 -5 19 -1 21 7 19 12 -4 10 -11 0 -18 -5 -15 -9z"/>
<path d="M164 3041 c0 -11 5 -17 13 -14 10 4 11 9 2 19 -15 18 -15 18 -15 -5z"/>
<path d="M97 3003 c4 -9 -1 -11 -13 -7 -11 3 -15 2 -8 -3 12 -9 15 -43 3 -43
-4 0 -9 6 -11 13 -3 6 -5 -3 -5 -20 0 -21 5 -33 14 -33 11 0 18 14 11 23 -2 2
9 18 25 36 15 18 25 37 22 41 -9 14 -43 7 -38 -7z m23 -17 c0 -2 -8 -10 -17
-17 -16 -13 -17 -12 -4 4 13 16 21 21 21 13z"/>
<path d="M120 2811 c0 -5 7 -11 15 -15 8 -3 15 -1 15 3 0 5 -7 11 -15 15 -8 3
-15 1 -15 -3z"/>
<path d="M85 2800 c-4 -6 -10 -8 -14 -6 -4 3 -8 -1 -8 -8 0 -8 8 -11 19 -8 10
2 15 9 11 15 -4 6 -1 7 7 2 10 -6 7 -12 -10 -25 -22 -17 -23 -19 -7 -35 25
-24 21 -28 -9 -8 l-27 17 14 -24 c7 -14 12 -31 11 -37 -2 -7 3 -13 9 -13 7 0
9 3 6 7 -4 3 0 14 9 24 9 10 14 24 11 32 -8 22 34 13 45 -9 9 -18 8 -18 -5 -2
-13 16 -27 15 -27 -3 0 -16 41 -17 49 -1 11 22 3 44 -12 35 -7 -4 -5 1 3 11 8
10 15 25 16 33 2 13 0 12 -15 -1 -15 -14 -20 -14 -37 -1 -23 17 -31 18 -39 5z
m52 -36 c-3 -3 -12 -4 -19 -1 -8 3 -5 6 6 6 11 1 17 -2 13 -5z"/>
<path d="M4944 2749 c-3 -6 -2 -15 4 -21 6 -6 12 -6 17 3 5 8 4 10 -3 5 -7 -4
-12 -3 -12 3 0 5 8 12 18 14 15 4 15 5 0 6 -9 0 -20 -4 -24 -10z"/>
<path d="M105 2693 c-3 -9 0 -20 7 -25 7 -4 9 -8 4 -8 -6 0 -5 -5 2 -12 7 -7
12 -17 12 -22 -1 -6 -10 0 -20 13 -23 26 -27 16 -5 -12 13 -18 15 -18 44 4 33
24 49 52 26 42 -8 -3 -12 -9 -9 -14 3 -5 1 -9 -4 -9 -17 0 -22 13 -9 29 10 14
10 14 -5 3 -9 -8 -23 -10 -29 -6 -9 5 -7 9 6 14 16 6 16 7 3 13 -10 3 -19 -1
-23 -10z m40 -51 c-3 -3 -11 0 -18 7 -9 10 -8 11 6 5 10 -3 15 -9 12 -12z"/>
<path d="M70 2622 c0 -5 7 -9 15 -9 8 0 12 4 9 9 -3 4 -9 8 -15 8 -5 0 -9 -4
-9 -8z"/>
<path d="M105 2478 c5 -26 11 -32 23 -24 15 9 7 39 -11 42 -11 1 -14 -4 -12
-18z m22 -3 c0 -8 -4 -12 -9 -9 -5 3 -6 10 -3 15 9 13 12 11 12 -6z"/>
<path d="M5055 2460 c3 -5 8 -10 11 -10 2 0 4 5 4 10 0 6 -5 10 -11 10 -5 0
-7 -4 -4 -10z"/>
<path d="M176 2382 c-3 -5 1 -9 9 -9 8 0 12 4 9 9 -3 4 -7 8 -9 8 -2 0 -6 -4
-9 -8z"/>
<path d="M294 2191 c15 -16 15 -19 1 -31 -10 -8 -15 -9 -15 -1 0 6 5 11 11 11
5 0 7 5 4 10 -9 15 -25 2 -25 -21 0 -16 5 -19 23 -14 19 5 20 4 6 -7 -15 -12
-15 -15 -1 -28 14 -13 15 -12 9 3 -3 9 -3 17 2 17 11 0 9 50 -2 68 -5 6 -13
12 -19 12 -6 0 -4 -8 6 -19z"/>
<path d="M315 1979 c-6 -8 -4 -10 5 -4 10 6 12 4 6 -11 -6 -15 -5 -17 5 -6 9
9 10 15 2 23 -8 8 -13 7 -18 -2z"/>
<path d="M390 1846 c0 -2 7 -7 16 -10 8 -3 12 -2 9 4 -6 10 -25 14 -25 6z"/>
<path d="M377 1804 c4 -11 3 -15 -5 -10 -6 3 -14 2 -17 -4 -4 -7 -11 -7 -18
-2 -19 14 -49 23 -42 12 3 -6 1 -10 -4 -10 -6 0 -11 5 -11 10 0 11 -29 14 -31
3 -3 -21 -4 -73 -2 -73 1 0 7 10 14 21 9 17 8 20 -3 14 -7 -5 -9 -4 -5 0 14
16 33 13 33 -5 0 -10 -3 -17 -6 -15 -3 2 -11 -4 -17 -14 -9 -14 -8 -18 3 -18
7 0 11 4 8 9 -3 4 4 8 15 8 12 0 21 -5 21 -11 0 -5 4 -8 9 -5 5 3 11 -1 15 -9
3 -8 0 -15 -6 -15 -6 0 -9 -3 -5 -6 3 -3 16 2 29 11 20 15 20 16 3 11 -16 -6
-18 -5 -7 5 6 7 12 17 12 22 0 4 -6 5 -12 2 -7 -4 -4 1 6 9 11 9 16 16 12 16
-4 0 0 7 8 16 18 18 20 30 6 39 -6 4 -7 -1 -3 -11z"/>
<path d="M363 1674 c0 -7 6 -10 14 -7 11 4 18 -9 11 -21 -2 -2 5 -13 15 -23 9
-11 14 -23 11 -26 -4 -4 1 -9 10 -13 9 -3 13 -10 10 -15 -3 -5 -10 -6 -16 -3
-7 4 -8 2 -4 -5 6 -9 11 -9 23 0 13 11 13 14 -3 26 -10 7 -13 13 -7 13 6 0 16
-6 22 -14 13 -15 54 -29 46 -16 -3 5 4 8 15 7 13 -1 19 -7 17 -17 -1 -8 -11
-14 -21 -12 -14 3 -16 -1 -11 -17 4 -14 2 -21 -6 -21 -7 0 -3 -9 9 -20 26 -24
40 -26 21 -3 -12 15 -12 16 3 10 18 -7 32 5 20 17 -10 10 -9 30 1 37 5 3 -2
18 -16 32 -17 19 -37 28 -66 31 -45 4 -54 9 -57 31 -1 8 4 11 12 8 8 -3 14 0
14 6 0 6 -3 10 -7 10 -20 -3 -34 2 -28 10 3 6 -3 9 -13 8 -10 0 -19 -6 -19
-13z m162 -142 c-3 -3 -1 -10 5 -16 6 -8 3 -12 -8 -12 -10 0 -18 8 -18 16 0 9
6 17 13 17 7 0 11 -3 8 -5z"/>
<path d="M4711 1653 c6 -7 17 -13 23 -12 7 0 6 2 -2 6 -6 2 -10 8 -8 12 3 4
-1 8 -9 8 -11 0 -12 -4 -4 -14z"/>
<path d="M428 1633 c7 -3 16 -2 19 1 4 3 -2 6 -13 5 -11 0 -14 -3 -6 -6z"/>
<path d="M410 1536 c0 -2 7 -9 15 -16 9 -7 15 -8 15 -2 0 5 -7 12 -15 16 -8 3
-15 4 -15 2z"/>
<path d="M479 1453 c-13 -16 -12 -17 4 -4 9 7 17 15 17 17 0 8 -8 3 -21 -13z"/>
<path d="M4330 1276 c0 -2 7 -7 16 -10 8 -3 12 -2 9 4 -6 10 -25 14 -25 6z"/>
<path d="M856 1221 c-3 -5 0 -11 7 -14 8 -3 14 1 14 9 0 16 -13 19 -21 5z"/>
<path d="M4295 1209 c-4 -6 -5 -12 -2 -15 2 -3 7 2 10 11 7 17 1 20 -8 4z"/>
<path d="M814 1173 c-3 -10 -10 -26 -15 -36 -6 -11 -8 -22 -5 -25 3 -3 6 0 6
7 0 7 4 10 8 7 5 -3 9 0 9 7 0 7 3 22 7 35 4 12 5 22 1 22 -3 0 -8 -8 -11 -17z"/>
<path d="M840 1120 c0 -5 5 -10 11 -10 5 0 7 5 4 10 -3 6 -8 10 -11 10 -2 0
-4 -4 -4 -10z"/>
<path d="M4265 1120 c-3 -5 -5 -10 -3 -11 29 -7 36 -5 31 7 -6 16 -19 18 -28
4z"/>
<path d="M810 1099 c0 -5 5 -7 10 -4 6 3 10 8 10 11 0 2 -4 4 -10 4 -5 0 -10
-5 -10 -11z"/>
<path d="M845 1090 c-14 -6 -15 -9 -5 -10 10 -1 9 -4 -5 -9 -12 -5 -26 -4 -35
3 -13 10 -13 9 -1 -6 7 -10 17 -15 22 -12 5 3 9 1 9 -5 0 -5 3 -17 7 -27 4
-10 2 -15 -4 -11 -5 3 -10 0 -10 -8 0 -22 24 1 31 30 4 17 11 22 22 18 12 -4
15 -2 12 8 -3 8 -10 13 -16 12 -6 -2 -9 4 -6 12 7 17 7 17 -21 5z"/>
<path d="M255 1040 c-11 -5 -16 -9 -12 -9 4 -1 2 -7 -5 -15 -7 -8 -16 -12 -20
-9 -5 2 -8 -1 -8 -6 0 -6 5 -11 11 -11 6 0 8 -7 5 -16 -4 -9 -1 -24 6 -32 11
-13 11 -14 -2 -7 -13 8 -13 7 -1 -8 7 -9 10 -17 5 -17 -5 0 -4 -4 1 -8 6 -4
16 -19 24 -34 11 -22 17 -25 28 -17 10 9 13 8 13 -2 0 -12 2 -12 9 0 5 7 13
11 19 7 17 -11 40 4 52 35 7 16 17 29 22 29 5 0 4 9 -2 19 -7 13 -7 22 0 26
14 9 12 19 -7 41 -19 20 -70 34 -59 16 3 -6 -5 -5 -19 1 -14 7 -25 15 -25 20
0 9 -9 8 -35 -3z"/>
<path d="M859 1003 c-1 -2 -2 -9 -3 -15 -1 -7 -8 -12 -16 -10 -11 3 -11 0 0
-12 16 -20 34 -21 26 -1 -3 9 0 15 9 15 8 0 15 5 15 11 0 5 5 7 12 3 6 -4 8
-3 4 4 -5 9 -44 13 -47 5z"/>
<path d="M910 960 c0 -5 5 -10 10 -10 6 0 10 5 10 10 0 6 -4 10 -10 10 -5 0
-10 -4 -10 -10z"/>
<path d="M873 925 c0 -8 4 -12 9 -9 5 3 6 10 3 15 -9 13 -12 11 -12 -6z"/>
<path d="M4701 807 c-7 -7 -17 -12 -23 -12 -6 0 -13 -7 -15 -15 -4 -13 -3 -13
6 0 15 21 14 4 -1 -20 -11 -17 -10 -22 2 -30 8 -5 11 -10 7 -10 -4 0 -2 -6 5
-14 7 -8 16 -12 21 -9 4 2 7 -1 7 -6 0 -6 5 -11 11 -11 5 0 7 5 3 11 -5 8 -2
9 11 1 20 -11 43 5 63 44 21 40 -65 103 -97 71z"/>
<path d="M1417 516 c-4 -10 -1 -13 8 -9 8 3 12 9 9 14 -7 12 -11 11 -17 -5z"/>
<path d="M1836 471 c-3 -5 1 -11 9 -14 9 -4 12 -1 8 9 -6 16 -10 17 -17 5z"/>
<path d="M3909 445 c-1 -3 -2 -8 -3 -12 -1 -5 -5 -15 -11 -23 -7 -12 -6 -13 7
-3 8 7 19 9 24 5 4 -4 3 0 -4 9 -6 9 -9 19 -5 22 3 4 3 7 0 7 -4 0 -8 -2 -8
-5z"/>
<path d="M3930 440 c0 -5 5 -10 10 -10 6 0 10 5 10 10 0 6 -4 10 -10 10 -5 0
-10 -4 -10 -10z"/>
<path d="M1780 375 c-14 -8 -20 -15 -15 -15 6 0 3 -5 -5 -10 -11 -7 -11 -10
-2 -10 7 0 11 -4 7 -9 -3 -5 -1 -12 5 -16 5 -3 10 0 10 7 0 8 3 9 8 3 12 -18
37 -11 34 9 -2 13 1 16 10 10 10 -6 11 -5 1 8 -7 8 -10 18 -6 22 4 4 -1 4 -11
0 -14 -5 -17 -4 -12 4 9 15 7 15 -24 -3z"/>
<path d="M3880 371 c-7 -15 -7 -22 2 -27 7 -4 10 -4 6 1 -4 4 -3 16 3 26 5 11
7 19 5 19 -3 0 -10 -9 -16 -19z"/>
<path d="M3850 340 c0 -5 5 -10 11 -10 5 0 7 5 4 10 -3 6 -8 10 -11 10 -2 0
-4 -4 -4 -10z"/>
<path d="M3820 320 c8 -5 20 -10 25 -10 6 0 3 5 -5 10 -8 5 -19 10 -25 10 -5
0 -3 -5 5 -10z"/>
<path d="M3815 280 c3 -5 8 -10 11 -10 2 0 4 5 4 10 0 6 -5 10 -11 10 -5 0 -7
-4 -4 -10z"/>
<path d="M3478 244 c6 -12 10 -23 7 -25 -2 -2 8 -5 21 -5 16 -1 24 3 24 15 0
13 -2 13 -9 3 -7 -11 -13 -9 -31 10 -21 21 -22 21 -12 2z"/>
<path d="M3420 190 c-12 -8 -12 -10 3 -16 10 -3 21 -4 24 0 4 3 0 6 -8 6 -11
0 -11 2 1 10 8 5 11 10 5 10 -5 0 -17 -4 -25 -10z"/>
<path d="M2651 168 c-8 -21 -15 -26 -33 -23 -13 3 -24 9 -26 15 -5 15 -19 12
-19 -5 0 -8 4 -12 9 -9 8 5 12 -10 8 -35 -1 -9 4 -12 15 -7 13 4 16 2 11 -9
-8 -23 4 -45 26 -45 10 0 17 -4 14 -8 -2 -4 6 -8 19 -8 13 0 21 4 19 8 -3 4
-1 8 5 8 5 0 12 -6 14 -12 4 -8 6 -9 6 -2 1 7 -10 19 -24 28 -14 9 -23 22 -19
28 4 7 3 8 -4 4 -6 -4 -22 -1 -34 6 -13 7 -26 12 -29 11 -3 -1 -6 5 -6 13 0
12 3 12 17 -1 21 -19 47 -21 32 -2 -7 8 -6 18 4 31 9 13 14 15 14 6 0 -7 3
-11 6 -7 3 3 1 14 -4 24 -10 16 -11 16 -21 -9z m17 -94 c21 -14 22 -41 1 -28
-5 3 -6 10 -3 16 5 8 1 9 -10 5 -21 -8 -39 0 -31 14 8 13 17 11 43 -7z"/>
<path d="M2889 124 c-15 -19 -21 -47 -8 -38 5 3 7 10 4 15 -4 5 -2 9 3 9 6 0
12 7 16 15 7 19 2 19 -15 -1z"/>
<path d="M3430 116 c0 -2 8 -10 18 -17 15 -13 16 -12 3 4 -13 16 -21 21 -21
13z"/>
<path d="M2936 102 c-3 -5 1 -9 9 -9 8 0 12 4 9 9 -3 4 -7 8 -9 8 -2 0 -6 -4
-9 -8z"/>
<path d="M2570 86 c0 -2 7 -7 16 -10 8 -3 12 -2 9 4 -6 10 -25 14 -25 6z"/>
</g>
</svg>
